<svg id="Calque_1" data-name="Calque 1" xmlns="http://www.w3.org/2000/svg" viewBox="0 0 15 15">
    <title>about</title>
    <path d="M6.79,9a2.69,2.69,0,0,1,.16-1,2.67,2.67,0,0,1,.62-.83,4.74,4.74,0,0,0,.59-.64,1.13,1.13,0,0,0,.19-.63,1,1,0,0,0-.22-.69.86.86,0,0,0-.65-.24.94.94,0,0,0-.66.23.81.81,0,0,0-.25.63H5.4A1.71,1.71,0,0,1,6,4.43a2.21,2.21,0,0,1,1.5-.49A2.15,2.15,0,0,1,9,4.43a1.75,1.75,0,0,1,.54,1.37,2.24,2.24,0,0,1-.73,1.54l-.59.58a1.58,1.58,0,0,0-.33,1Zm-.08,1.49A.61.61,0,0,1,6.89,10a.74.74,0,0,1,1,0,.61.61,0,0,1,.18.45.6.6,0,0,1-.17.44.65.65,0,0,1-.49.18.64.64,0,0,1-.49-.18A.61.61,0,0,1,6.71,10.45Z"/>
    <path d="M7.5,15,1,11.26V3.74L7.5,0,14,3.74v7.53ZM2,10.7,7.5,13.84,13,10.7V4.3L7.5,1.16,2,4.3Z"/>
</svg>