<svg xmlns="http://www.w3.org/2000/svg" viewBox="0 0 26 26">
    <path d="M13,22.87a.5.5,0,0,1-.25-.07l-8-4.62a.5.5,0,0,1-.25-.43V8.52a.5.5,0,0,1,.25-.43l8-4.62a.5.5,0,0,1,.5,0l8,4.62a.5.5,0,0,1,.25.43v9.24a.5.5,0,0,1-.25.43l-8,4.62A.5.5,0,0,1,13,22.87ZM5.5,17.47,13,21.8l7.5-4.33V8.81L13,4.48,5.5,8.81Zm15.5.29h0Z"/>
    <path d="M12.5,10v5l-1.05-1.15a.54.54,0,0,0-.76,0,.53.53,0,0,0,0,.75l1.91,2.12a.53.53,0,0,0,.78,0l2-2.12a.53.53,0,0,0,0-.75.55.55,0,0,0-.76,0l-1.06,1.1V10a.5.5,0,1,0-1,0Z"/>
</svg>