<svg id="Calque_1" data-name="Calque 1" xmlns="http://www.w3.org/2000/svg" viewBox="0 0 15 15">
    <title>fullscreen</title>
    <path d="M2,5a.5.5,0,0,1-.5-.5V2A.5.5,0,0,1,2,1.5H4.5a.5.5,0,0,1,0,1h-2v2A.5.5,0,0,1,2,5Z"/>
    <path d="M13,5a.5.5,0,0,1-.5-.5v-2h-2a.5.5,0,0,1,0-1H13a.5.5,0,0,1,.5.5V4.5A.5.5,0,0,1,13,5Z"/>
    <path d="M13,13.5H10.5a.5.5,0,0,1,0-1h2v-2a.5.5,0,0,1,1,0V13A.5.5,0,0,1,13,13.5Z"/>
    <path d="M4.5,13.5H2a.5.5,0,0,1-.5-.5V10.5a.5.5,0,0,1,1,0v2h2a.5.5,0,0,1,0,1Z"/>
</svg>