<svg id="Calque_1" data-name="Calque 1" xmlns="http://www.w3.org/2000/svg" viewBox="0 0 15 15">
    <title>fullscreen2</title>
    <path d="M2,5a.5.5,0,0,1-.5-.5V2A.5.5,0,0,1,2,1.5H4.5a.5.5,0,0,1,0,1h-2v2A.5.5,0,0,1,2,5Z"/>
    <path d="M13,5a.5.5,0,0,1-.5-.5v-2h-2a.5.5,0,0,1,0-1H13a.5.5,0,0,1,.5.5V4.5A.5.5,0,0,1,13,5Z"/>
    <path d="M13,13.5H10.5a.5.5,0,0,1,0-1h2v-2a.5.5,0,0,1,1,0V13A.5.5,0,0,1,13,13.5Z"/>
    <path d="M4.5,13.5H2a.5.5,0,0,1-.5-.5V10.5a.5.5,0,0,1,1,0v2h2a.5.5,0,0,1,0,1Z"/>
    <rect x="4.3" y="4.2" width="6.3" height="6.3"/>
    <path d="M10.6,11H4.3a.5.5,0,0,1-.5-.5V4.2a.5.5,0,0,1,.5-.5h6.3a.5.5,0,0,1,.5.5v6.3A.5.5,0,0,1,10.6,11ZM4.8,10h5.3V4.7H4.8Z"/>
</svg>