<svg id="Calque_1" data-name="Calque 1" xmlns="http://www.w3.org/2000/svg" viewBox="0 0 15 15">
    <title>share</title>
    <path d="M11.22,9.54a2.15,2.15,0,0,0-1.59.71L5.85,8.16A1.94,1.94,0,0,0,5.85,7L9.63,4.91a2.16,2.16,0,1,0-.57-1.45A2.14,2.14,0,0,0,9.15,4L5.37,6.13A2.17,2.17,0,1,0,5.37,9l3.77,2.09a2.14,2.14,0,0,0-.09.58,2.17,2.17,0,1,0,2.17-2.17ZM10.06,3.46a1.17,1.17,0,1,1,1.17,1.17,1.14,1.14,0,0,1-.66-.23,1.14,1.14,0,0,1-.49-.87S10.06,3.48,10.06,3.46ZM3.78,8.75a1.17,1.17,0,1,1,0-2.33,1.14,1.14,0,0,1,.66.23,1.14,1.14,0,0,1,.49.87v.13a1.14,1.14,0,0,1-.49.87A1.14,1.14,0,0,1,3.78,8.75Zm7.45,4.13a1.17,1.17,0,0,1-1.17-1.17s0,0,0-.07a1.21,1.21,0,0,1,1.15-1.1,1.17,1.17,0,0,1,0,2.33Z"/>
</svg>