<svg id="Calque_1" data-name="Calque 1" xmlns="http://www.w3.org/2000/svg" viewBox="0 0 15 15">
    <title>sound</title>
    <path d="M5.5,10.7a.5.5,0,0,1-.5-.5v-4a.5.5,0,0,1,1,0v4A.5.5,0,0,1,5.5,10.7Z"/>
    <path d="M3.5,9.7A.5.5,0,0,1,3,9.2v-2a.5.5,0,0,1,1,0v2A.5.5,0,0,1,3.5,9.7Z"/>
    <path d="M7.5,12.7a.5.5,0,0,1-.5-.5v-8a.5.5,0,0,1,1,0v8A.5.5,0,0,1,7.5,12.7Z"/>
    <path d="M11.5,9.7a.5.5,0,0,1-.5-.5v-2a.5.5,0,1,1,1,0v2A.5.5,0,0,1,11.5,9.7Z"/>
    <path d="M9.5,10.7a.5.5,0,0,1-.5-.5v-4a.5.5,0,0,1,1,0v4A.5.5,0,0,1,9.5,10.7Z"/>
</svg>