<svg id="Calque_1" data-name="Calque 1" xmlns="http://www.w3.org/2000/svg" viewBox="0 0 30 30"><title>help</title><path d="M15,1.15,27,8.08V21.92L15,28.85,3,21.92V8.08L15,1.15M15,0,2,7.5v15L15,30l13-7.5V7.5L15,0Z"/><path d="M13,20.1a.5.5,0,0,1-.5-.5v-2h-2a.5.5,0,0,1,0-1H13a.5.5,0,0,1,.5.5v2.5A.5.5,0,0,1,13,20.1Z"/><path d="M9.5,21.1a.5.5,0,0,1-.35-.85l3.5-3.5a.5.5,0,1,1,.71.71L9.85,21A.5.5,0,0,1,9.5,21.1Z"/><path d="M17,20.1a.5.5,0,0,1-.5-.5V17.1a.5.5,0,0,1,.5-.5h2.5a.5.5,0,0,1,0,1h-2v2A.5.5,0,0,1,17,20.1Z"/><path d="M20.5,21.1a.5.5,0,0,1-.35-.15l-3.5-3.5a.5.5,0,0,1,.71-.71l3.5,3.5a.5.5,0,0,1-.35.85Z"/><path d="M13,13.6H10.5a.5.5,0,0,1,0-1h2v-2a.5.5,0,0,1,1,0v2.5A.5.5,0,0,1,13,13.6Z"/><path d="M13,13.6a.5.5,0,0,1-.35-.15L9.15,10a.5.5,0,0,1,.71-.71l3.5,3.5a.5.5,0,0,1-.35.85Z"/><path d="M19.5,13.6H17a.5.5,0,0,1-.5-.5V10.6a.5.5,0,0,1,1,0v2h2a.5.5,0,0,1,0,1Z"/><path d="M17,13.6a.5.5,0,0,1-.35-.85l3.5-3.5a.5.5,0,1,1,.71.71l-3.5,3.5A.5.5,0,0,1,17,13.6Z"/><path d="M15,14.3a.9.9,0,1,0,.9.9.9.9,0,0,0-.9-.9Z"/></svg>