<svg id="Calque_1" data-name="Calque 1" xmlns="http://www.w3.org/2000/svg" viewBox="0 0 30 30"><title>lightup</title><path d="M15,1.15,27,8.08V21.92L15,28.85,3,21.92V8.08L15,1.15M15,0,2,7.5v15L15,30l13-7.5V7.5L15,0Z"/><path d="M15,13.6A1.4,1.4,0,1,1,13.6,15,1.4,1.4,0,0,1,15,13.6m0-1A2.4,2.4,0,1,0,17.4,15,2.4,2.4,0,0,0,15,12.6Z"/><path d="M15,10.1a.5.5,0,0,1-.5-.5v-2a.5.5,0,1,1,1,0v2A.5.5,0,0,1,15,10.1Z"/><path d="M22.5,15.6h-2a.5.5,0,0,1,0-1h2a.5.5,0,0,1,0,1Z"/><path d="M15,23.1a.5.5,0,0,1-.5-.5v-2a.5.5,0,0,1,1,0v2A.5.5,0,0,1,15,23.1Z"/><path d="M9.5,15.6h-2a.5.5,0,0,1,0-1h2a.5.5,0,0,1,0,1Z"/><path d="M18.9,11.7a.5.5,0,0,1-.35-.85l1.4-1.4a.5.5,0,1,1,.71.71l-1.4,1.4A.5.5,0,0,1,18.9,11.7Z"/><path d="M20.3,20.9a.5.5,0,0,1-.35-.15l-1.4-1.4a.5.5,0,0,1,.71-.71l1.4,1.4a.5.5,0,0,1-.35.85Z"/><path d="M9.7,20.9A.5.5,0,0,1,9.35,20l1.4-1.4a.5.5,0,0,1,.71.71l-1.4,1.4A.5.5,0,0,1,9.7,20.9Z"/><path d="M11.1,11.7a.5.5,0,0,1-.35-.15l-1.4-1.4a.5.5,0,1,1,.71-.71l1.4,1.4a.5.5,0,0,1-.35.85Z"/></svg>