<svg id="Calque_1" data-name="Calque 1" xmlns="http://www.w3.org/2000/svg" viewBox="0 0 30 30"><title>click</title><path d="M11.93,11.57l5.8,15.1c.1.3.4.3.6,0l2.1-3.9,4.4,4.4a.61.61,0,0,0,.8,0l2.2-2.2a.61.61,0,0,0,0-.8l-4.4-4.4,3.9-2.1a.38.38,0,0,0,0-.6l-15.1-5.8A.22.22,0,0,0,11.93,11.57Z"/><path d="M16.43,10.17a.6.6,0,0,1-.4-.1.48.48,0,0,1,0-.7l3.9-3.8a.49.49,0,0,1,.7.7l-3.9,3.8A.37.37,0,0,1,16.43,10.17Z"/><path d="M13,9.07a.47.47,0,0,1-.5-.5v-5a.5.5,0,0,1,1,0v5A.47.47,0,0,1,13,9.07Z"/><path d="M10,9.88a.6.6,0,0,1-.4-.1L5.82,6a.49.49,0,0,1,.7-.7l3.8,3.8a.48.48,0,0,1,0,.7C10.22,9.77,10.12,9.88,10,9.88Z"/><path d="M9.52,13.57h-7a.5.5,0,0,1,0-1h7a.5.5,0,1,1,0,1Z"/><path d="M6.52,20.07a.6.6,0,0,1-.4-.1.48.48,0,0,1,0-.7l3.9-3.8a.49.49,0,0,1,.7.7L6.82,20A.37.37,0,0,1,6.52,20.07Z"/></svg>