<svg id="Calque_1" data-name="Calque 1" xmlns="http://www.w3.org/2000/svg" viewBox="0 0 30 30"><title>calendar</title><path d="M22.5,4.25H20.8v-1a.5.5,0,0,0-1,0v1h-9v-1a.5.5,0,0,0-1,0v1H8.1a3.33,3.33,0,0,0-3.3,3.3v2.7h21V7.55A3.33,3.33,0,0,0,22.5,4.25Z"/><path d="M4.8,23.95a3.33,3.33,0,0,0,3.3,3.3H22.5a3.33,3.33,0,0,0,3.3-3.3V11.25H4.8Zm15.3-11H22v1.9H20.1Zm0,4.4H22v1.9H20.1Zm-4.3-4.4h1.9v1.9H15.8Zm0,4.4h1.9v1.9H15.8Zm0,4.4h1.9v1.9H15.8Zm-4.3-8.8h1.9v1.9H11.5Zm0,4.4h1.9v1.9H11.5Zm0,4.4h1.9v1.9H11.5Zm-4.3-8.8H9.1v1.9H7.2Zm0,4.4H9.1v1.9H7.2Zm0,4.4H9.1v1.9H7.2Z"/></svg>