<svg id="Calque_1" data-name="Calque 1" xmlns="http://www.w3.org/2000/svg" viewBox="0 0 30 30"><title>interact</title><path d="M22.07,21.8a11.15,11.15,0,1,0-9.78,3,11.39,11.39,0,0,0,4.19-.05L25,26.48a.22.22,0,0,0,.22-.34Zm-9.25-2.71a1.33,1.33,0,0,1-1.71,0,1.13,1.13,0,0,1,0-1.59,1.29,1.29,0,0,1,1.69,0,1.13,1.13,0,0,1,0,1.59Zm2.25-6.47a4.81,4.81,0,0,1-1,1.22l-.59.56a2,2,0,0,0-.63,1.24v.44h-.9A.91.91,0,0,1,11.06,15a2.87,2.87,0,0,1,.15-.53,3.32,3.32,0,0,1,.9-1.19,4.62,4.62,0,0,0,.87-1,1.49,1.49,0,0,0,.22-.77q0-1.23-1.13-1.23a1.15,1.15,0,0,0-.86.33A1.1,1.1,0,0,0,11,11a.87.87,0,0,1-.83.52h-.3A.89.89,0,0,1,9,10.32a2.53,2.53,0,0,1,.69-1,4.14,4.14,0,0,1,4.79,0,2.65,2.65,0,0,1,.85,2.1,2.56,2.56,0,0,1-.22,1.2Zm2.4-3.91h.37a.9.9,0,0,1,.9.9v0l-.19,5.52a.9.9,0,0,1-1.8,0l-.18-5.45a.9.9,0,0,1,.79-1Zm1,10.37a1.31,1.31,0,0,1-1.7,0,1,1,0,0,1-.32-.79,1.07,1.07,0,0,1,.32-.79,1.16,1.16,0,0,1,.85-.32,1.18,1.18,0,0,1,.85.31A1.14,1.14,0,0,1,18.47,19.08Z"/></svg>