<svg id="Calque_1" data-name="Calque 1" xmlns="http://www.w3.org/2000/svg" viewBox="0 0 30 30"><title>time</title><path d="M23.86,8.75l.6.6a.5.5,0,0,0,.6,0,.45.45,0,0,0,0-.5L23.26,7a.45.45,0,0,0-.5,0,.45.45,0,0,0,0,.5l.6.6-1.3,1.3a9.72,9.72,0,0,0-6.7-3V4.55h1a.47.47,0,0,0,.5-.5.47.47,0,0,0-.5-.5h-3a.47.47,0,0,0-.5.5.47.47,0,0,0,.5.5h1v1.9a10,10,0,1,0,10.5,10,10.42,10.42,0,0,0-2.3-6.4h0Zm-3.6,2.8-5.1,5.3a.52.52,0,0,1-.4.2.37.37,0,0,1-.3-.1.48.48,0,0,1,0-.7l5.1-5.3a.48.48,0,0,1,.7,0C20.46,11,20.46,11.35,20.26,11.55Z"/></svg>