<svg xmlns="http://www.w3.org/2000/svg" viewBox="0 0 18 18">
    <title>what</title>
    <path d="M4.41,11.59a5.49,5.49,0,0,1,.31-2A4.18,4.18,0,0,1,5.86,8.06,5.81,5.81,0,0,0,7,6.86a1.88,1.88,0,0,0,.27-1q0-1.55-1.42-1.55a1.44,1.44,0,0,0-1.08.42A1.63,1.63,0,0,0,4.3,5.91H2.16a.48.48,0,0,1-.48-.51,3.36,3.36,0,0,1,1.1-2.22,4.39,4.39,0,0,1,3-1,4.41,4.41,0,0,1,3,.94A3.33,3.33,0,0,1,9.88,5.77a3.22,3.22,0,0,1-.35,1.47A6,6,0,0,1,8.32,8.77l-.74.7A2.51,2.51,0,0,0,6.78,11l0,.56Zm-.26,2.8a1.33,1.33,0,0,1,.42-1A1.48,1.48,0,0,1,5.63,13a1.48,1.48,0,0,1,1.06.4,1.42,1.42,0,0,1,0,2,1.48,1.48,0,0,1-1.07.39,1.48,1.48,0,0,1-1.07-.39A1.32,1.32,0,0,1,4.15,14.39Z"/>
    <path d="M12.77,13a1.48,1.48,0,0,1,1.07.39,1.43,1.43,0,0,1,0,2,1.48,1.48,0,0,1-1.07.39,1.47,1.47,0,0,1-1.06-.39,1.33,1.33,0,0,1-.41-1,1.34,1.34,0,0,1,.41-1A1.46,1.46,0,0,1,12.77,13Zm.64-1.44H12.14a.47.47,0,0,1-.47-.46l-.28-8.27a.47.47,0,0,1,.47-.49h1.83a.47.47,0,0,1,.47.49l-.28,8.27A.47.47,0,0,1,13.41,11.58Z"/>
</svg>