<?xml version="1.0" encoding="utf-8"?>
<!-- Generator: Adobe Illustrator 20.1.0, SVG Export Plug-In . SVG Version: 6.00 Build 0)  -->
<svg version="1.1" id="Calque_1" xmlns="http://www.w3.org/2000/svg" xmlns:xlink="http://www.w3.org/1999/xlink" x="0px" y="0px"
	 viewBox="0 0 15 15" style="enable-background:new 0 0 15 15;" xml:space="preserve">
<title>twitter</title>
<path d="M12.9,13.6L12.9,13.6c0.4,0,0.7-0.3,0.7-0.7V2.2c0-0.4-0.3-0.7-0.7-0.7H2.2c-0.4,0-0.7,0.3-0.7,0.7v10.7
	c0,0.4,0.3,0.7,0.7,0.7 M7.9,13.6V8.9H6.4V7.1h1.6V5.7c0-1.6,0.9-2.4,2.3-2.4c0.7,0,1.2,0,1.4,0.1V5h-1C10,5,9.8,5.4,9.8,5.9v1.2
	h1.8l-0.2,1.8H9.8v4.7"/>
</svg>
