<svg id="Calque_1" data-name="Calque 1" xmlns="http://www.w3.org/2000/svg" viewBox="0 0 15 15"><title>link</title><path d="M10.3,8.75a.5.5,0,0,1-.35-.85L11.85,6a2,2,0,0,0,.6-1.48,1.78,1.78,0,0,0-.58-1.29,2.29,2.29,0,0,0-1.46-.58,1.68,1.68,0,0,0-1.33.55L7.15,5.1a.5.5,0,0,1-.71-.71l1.9-1.9a2.7,2.7,0,0,1,2.08-.86,3.3,3.3,0,0,1,2.11.84,2.77,2.77,0,0,1,.91,2,3,3,0,0,1-.9,2.22l-1.9,1.9A.5.5,0,0,1,10.3,8.75Z"/><path d="M4.64,13.36H4.58a3.3,3.3,0,0,1-2.11-.84,2.77,2.77,0,0,1-.91-2,3,3,0,0,1,.9-2.22l1.8-1.8A.5.5,0,0,1,5,7.2L3.15,9a2,2,0,0,0-.6,1.48,1.78,1.78,0,0,0,.58,1.29,2,2,0,0,0,2.79,0L7.75,10a.5.5,0,1,1,.71.71l-1.8,1.8A2.67,2.67,0,0,1,4.64,13.36Z"/><path d="M4.6,10.75a.5.5,0,0,1-.35-.85l5.6-5.6a.5.5,0,1,1,.71.71L5,10.6A.5.5,0,0,1,4.6,10.75Z"/></svg>