<svg id="Calque_1" data-name="Calque 1" xmlns="http://www.w3.org/2000/svg" viewBox="0 0 15 15"><title>twitter</title><path d="M6,12.5a9,9,0,0,1-4.14-1.1.44.44,0,0,1-.19-.52.43.43,0,0,1,.47-.29,3.62,3.62,0,0,0,2.54-.53C3.51,9.21,1,6.79,2.53,3.19a.44.44,0,0,1,.37-.26.44.44,0,0,1,.4.2A5.39,5.39,0,0,0,7.16,5.19,2.71,2.71,0,0,1,9.86,2.5a2.68,2.68,0,0,1,1.78.68c.72-.08,1.28-.09,1.3-.09a.48.48,0,0,1,.17,0,.44.44,0,0,1,.31,0,.44.44,0,0,1,.25.56,5.39,5.39,0,0,1-1,1.75c.14,1.26-.18,3.1-2.19,5.17A6.07,6.07,0,0,1,6,12.5ZM3.91,11.34A5.64,5.64,0,0,0,9.83,10c1.9-2,2.09-3.63,1.92-4.68a.44.44,0,0,1,.2-.44A2.49,2.49,0,0,0,12.59,4c-.26,0-.64,0-1,.09a.44.44,0,0,1-.36-.13A1.83,1.83,0,0,0,8,5.2a1.69,1.69,0,0,0,0,.38.44.44,0,0,1-.45.53A6.85,6.85,0,0,1,3.08,4.22c-1,3.39,2.35,5.35,2.5,5.43a.44.44,0,0,1,.11.67A3.86,3.86,0,0,1,3.91,11.34Z"/></svg>