# Blender v2.78 (sub 0) OBJ File: ''
# www.blender.org
mtllib 1.mtl
o Interact2
v -29.925562 33.228493 16.584597
v -29.968163 33.715416 16.584597
v -35.119888 17.090132 16.584593
v -35.119888 52.554317 16.584599
v -29.799057 32.756371 16.584597
v -29.925562 34.202335 16.584597
v -29.592489 32.313385 16.584597
v -29.799057 34.674461 16.584597
v -29.312136 31.913000 16.584597
v -19.453026 17.090132 16.584593
v -29.592489 35.117447 16.584597
v -29.312136 35.517830 16.584597
v -28.966516 31.567381 16.584597
v -19.453026 52.554317 16.584599
v -28.566132 31.287027 16.584597
v -28.966516 35.863453 16.584597
v -28.123146 31.080460 16.584597
v -28.566132 36.143803 16.584597
v -27.651020 30.953955 16.584597
v -28.123146 36.350372 16.584597
v -27.164101 30.911354 16.584597
v -27.651020 36.476875 16.584597
v -26.677179 30.953955 16.584597
v -27.164101 36.519478 16.584597
v -26.205053 31.080460 16.584597
v -26.677179 36.476875 16.584597
v -25.762068 31.287027 16.584597
v -26.205053 36.350372 16.584597
v -25.762068 36.143803 16.584597
v -25.361683 31.567381 16.584597
v -25.361683 35.863453 16.584597
v -25.016064 31.913000 16.584597
v -25.016064 35.517830 16.584597
v -24.735710 32.313385 16.584597
v -24.735710 35.117447 16.584597
v -24.529142 32.756371 16.584597
v -24.529142 34.674461 16.584597
v -24.402637 33.228493 16.584597
v -24.402637 34.202335 16.584597
v -24.360037 33.715416 16.584597
v -19.453026 17.090132 10.717762
v -19.453026 52.554321 10.717768
v -35.119888 17.090132 10.717762
v -29.968163 33.715420 10.717765
v -29.925562 33.228497 10.717765
v -35.119888 52.554321 10.717768
v -29.799057 32.756374 10.717765
v -29.925562 34.202339 10.717765
v -29.592489 32.313389 10.717765
v -29.799057 34.674465 10.717765
v -29.312136 31.913000 10.717764
v -29.592489 35.117451 10.717765
v -29.312136 35.517834 10.717765
v -28.966516 31.567381 10.717764
v -28.566132 31.287027 10.717764
v -28.966516 35.863457 10.717765
v -28.123146 31.080460 10.717764
v -28.566132 36.143806 10.717765
v -27.651020 30.953955 10.717764
v -28.123146 36.350376 10.717765
v -27.164101 30.911354 10.717764
v -27.651020 36.476879 10.717765
v -26.677179 30.953955 10.717764
v -27.164101 36.519482 10.717765
v -26.205053 31.080460 10.717764
v -26.677179 36.476879 10.717765
v -25.762068 31.287027 10.717764
v -26.205053 36.350376 10.717765
v -25.762068 36.143806 10.717765
v -25.361683 31.567381 10.717764
v -25.361683 35.863457 10.717765
v -25.016064 31.913000 10.717764
v -25.016064 35.517834 10.717765
v -24.735710 32.313389 10.717765
v -24.735710 35.117451 10.717765
v -24.529142 32.756374 10.717765
v -24.529142 34.674465 10.717765
v -24.402637 33.228497 10.717765
v -24.402637 34.202339 10.717765
v -24.360037 33.715420 10.717765
v -24.360037 33.715416 16.584597
v -24.360037 33.715420 10.717765
v -24.402637 33.228497 10.717765
v -24.402637 33.228493 16.584597
v -24.529142 32.756374 10.717765
v -24.529142 32.756371 16.584597
v -24.735710 32.313389 10.717765
v -24.735710 32.313385 16.584597
v -25.016064 31.913000 10.717764
v -25.016064 31.913000 16.584597
v -25.361683 31.567381 10.717764
v -25.361683 31.567381 16.584597
v -25.762068 31.287027 10.717764
v -25.762068 31.287027 16.584597
v -26.205053 31.080460 10.717764
v -26.205053 31.080460 16.584597
v -26.677179 30.953955 10.717764
v -26.677179 30.953955 16.584597
v -27.164101 30.911354 10.717764
v -27.164101 30.911354 16.584597
v -27.651020 30.953955 10.717764
v -27.651020 30.953955 16.584597
v -28.123146 31.080460 10.717764
v -28.123146 31.080460 16.584597
v -28.566132 31.287027 10.717764
v -28.566132 31.287027 16.584597
v -28.966516 31.567381 10.717764
v -28.966516 31.567381 16.584597
v -29.312136 31.913000 10.717764
v -29.312136 31.913000 16.584597
v -29.592489 32.313389 10.717765
v -29.592489 32.313385 16.584597
v -29.799057 32.756374 10.717765
v -29.799057 32.756371 16.584597
v -29.925562 33.228497 10.717765
v -29.925562 33.228493 16.584597
v -29.968163 33.715420 10.717765
v -29.968163 33.715416 16.584597
v -29.925562 34.202339 10.717765
v -29.925562 34.202335 16.584597
v -29.799057 34.674465 10.717765
v -29.799057 34.674461 16.584597
v -29.592489 35.117451 10.717765
v -29.592489 35.117447 16.584597
v -29.312136 35.517834 10.717765
v -29.312136 35.517830 16.584597
v -28.966516 35.863457 10.717765
v -28.966516 35.863453 16.584597
v -28.566132 36.143806 10.717765
v -28.566132 36.143803 16.584597
v -28.123146 36.350376 10.717765
v -28.123146 36.350372 16.584597
v -27.651020 36.476879 10.717765
v -27.651020 36.476875 16.584597
v -27.164101 36.519482 10.717765
v -27.164101 36.519478 16.584597
v -26.677179 36.476879 10.717765
v -26.677179 36.476875 16.584597
v -26.205053 36.350376 10.717765
v -26.205053 36.350372 16.584597
v -25.762068 36.143806 10.717765
v -25.762068 36.143803 16.584597
v -25.361683 35.863457 10.717765
v -25.361683 35.863453 16.584597
v -25.016064 35.517834 10.717765
v -25.016064 35.517830 16.584597
v -24.735710 35.117451 10.717765
v -24.735710 35.117447 16.584597
v -24.529142 34.674465 10.717765
v -24.529142 34.674461 16.584597
v -24.402637 34.202339 10.717765
v -24.402637 34.202335 16.584597
vt 0.3315 0.4551
vt 0.3288 0.4688
vt 0.0000 0.0000
vt 0.0000 1.0000
vt 0.3396 0.4417
vt 0.3315 0.4825
vt 0.3528 0.4293
vt 0.3396 0.4958
vt 0.3707 0.4180
vt 1.0000 0.0000
vt 0.3528 0.5083
vt 0.3707 0.5196
vt 0.3928 0.4082
vt 1.0000 1.0000
vt 0.4183 0.4003
vt 0.3928 0.5294
vt 0.4466 0.3945
vt 0.4183 0.5373
vt 0.4767 0.3909
vt 0.4466 0.5431
vt 0.5078 0.3897
vt 0.4767 0.5467
vt 0.5389 0.3909
vt 0.5078 0.5479
vt 0.5690 0.3945
vt 0.5389 0.5467
vt 0.5973 0.4003
vt 0.5690 0.5431
vt 0.5973 0.5373
vt 0.6229 0.4082
vt 0.6229 0.5294
vt 0.6449 0.4180
vt 0.6449 0.5196
vt 0.6628 0.4293
vt 0.6628 0.5083
vt 0.6760 0.4417
vt 0.6760 0.4958
vt 0.6841 0.4551
vt 0.6841 0.4825
vt 0.6868 0.4688
vt 1.0000 0.0000
vt 1.0000 1.0000
vt 0.0000 1.0000
vt 0.0000 0.0000
vt 1.0000 0.0000
vt 0.6712 0.4688
vt 0.6685 0.4551
vt 1.0000 1.0000
vt 0.6604 0.4417
vt 0.6685 0.4825
vt 0.6472 0.4293
vt 0.6604 0.4958
vt 0.6293 0.4180
vt 0.6472 0.5083
vt 0.6293 0.5196
vt 0.0000 1.0000
vt 0.0000 0.0000
vt 0.6072 0.4082
vt 0.5817 0.4003
vt 0.6072 0.5294
vt 0.5534 0.3945
vt 0.5817 0.5373
vt 0.5233 0.3909
vt 0.5534 0.5431
vt 0.4922 0.3897
vt 0.5233 0.5467
vt 0.4611 0.3909
vt 0.4922 0.5479
vt 0.4310 0.3945
vt 0.4611 0.5467
vt 0.4027 0.4003
vt 0.4310 0.5431
vt 0.4027 0.5373
vt 0.3771 0.4082
vt 0.3771 0.5294
vt 0.3551 0.4180
vt 0.3551 0.5196
vt 0.3372 0.4293
vt 0.3372 0.5083
vt 0.3240 0.4417
vt 0.3240 0.4958
vt 0.3159 0.4551
vt 0.3159 0.4825
vt 0.3132 0.4688
vt 1.0000 0.0000
vt 1.0000 1.0000
vt 0.0000 1.0000
vt 0.0000 0.0000
vt 1.0000 0.0000
vt 0.0000 0.0000
vt 1.0000 1.0000
vt 0.0000 1.0000
vt 0.0000 0.3550
vt 0.0000 0.6793
vt 0.0278 0.6793
vt 0.0278 0.3550
vt 0.0556 0.6793
vt 0.0556 0.3550
vt 0.0833 0.6793
vt 0.0833 0.3550
vt 0.1111 0.6793
vt 0.1111 0.3550
vt 0.1389 0.6793
vt 0.1389 0.3550
vt 0.1667 0.6793
vt 0.1667 0.3550
vt 0.1944 0.6793
vt 0.1944 0.3550
vt 0.2222 0.6793
vt 0.2222 0.3550
vt 0.2500 0.6793
vt 0.2500 0.3550
vt 0.2778 0.6793
vt 0.2778 0.3550
vt 0.3056 0.6793
vt 0.3056 0.3550
vt 0.3333 0.6793
vt 0.3333 0.3550
vt 0.3611 0.6793
vt 0.3611 0.3550
vt 0.3889 0.6793
vt 0.3889 0.3550
vt 0.4167 0.6793
vt 0.4167 0.3550
vt 0.4444 0.6793
vt 0.4444 0.3550
vt 0.4722 0.6793
vt 0.4722 0.3550
vt 0.5000 0.6793
vt 0.5000 0.3550
vt 0.5278 0.6793
vt 0.5278 0.3550
vt 0.5556 0.6793
vt 0.5556 0.3550
vt 0.5833 0.6793
vt 0.5833 0.3550
vt 0.6111 0.6793
vt 0.6111 0.3550
vt 0.6389 0.6793
vt 0.6389 0.3550
vt 0.6667 0.6793
vt 0.6667 0.3550
vt 0.6944 0.6793
vt 0.6944 0.3550
vt 0.7222 0.6793
vt 0.7222 0.3550
vt 0.7500 0.6793
vt 0.7500 0.3550
vt 0.7778 0.6793
vt 0.7778 0.3550
vt 0.8056 0.6793
vt 0.8056 0.3550
vt 0.8333 0.6793
vt 0.8333 0.3550
vt 0.8611 0.6793
vt 0.8611 0.3550
vt 0.8889 0.6793
vt 0.8889 0.3550
vt 0.9167 0.6793
vt 0.9167 0.3550
vt 0.9444 0.6793
vt 0.9444 0.3550
vt 0.9722 0.6793
vt 0.9722 0.3550
vt 1.0000 0.6793
vt 1.0000 0.3550
vn 0.0000 0.0000 1.0000
vn -0.5773 -0.5773 0.5773
vn -0.5773 0.5773 0.5773
vn 0.5773 -0.5773 0.5773
vn 0.5773 0.5773 0.5773
vn 0.5773 -0.5773 -0.5773
vn 0.5773 0.5773 -0.5773
vn -0.5773 -0.5773 -0.5773
vn 0.0000 0.0000 -1.0000
vn -0.5773 0.5773 -0.5773
vn -1.0000 0.0000 0.0000
vn -0.9848 0.1736 0.0000
vn -0.9397 0.3420 0.0000
vn -0.8660 0.5000 0.0000
vn -0.7660 0.6428 0.0000
vn -0.6428 0.7660 0.0000
vn -0.5000 0.8660 0.0000
vn -0.3420 0.9397 0.0000
vn -0.1736 0.9848 0.0000
vn 0.0000 1.0000 0.0000
vn 0.1736 0.9848 0.0000
vn 0.3420 0.9397 0.0000
vn 0.5000 0.8660 0.0000
vn 0.6428 0.7660 0.0000
vn 0.7660 0.6428 0.0000
vn 0.8660 0.5000 0.0000
vn 0.9397 0.3420 0.0000
vn 0.9848 0.1736 0.0000
vn 1.0000 0.0000 0.0000
vn 0.9848 -0.1736 0.0000
vn 0.9397 -0.3420 0.0000
vn 0.8660 -0.5000 0.0000
vn 0.7660 -0.6428 0.0000
vn 0.6428 -0.7660 0.0000
vn 0.5000 -0.8660 0.0000
vn 0.3420 -0.9397 0.0000
vn 0.1736 -0.9848 0.0000
vn 0.0000 -1.0000 0.0000
vn -0.1736 -0.9848 0.0000
vn -0.3420 -0.9397 0.0000
vn -0.5000 -0.8660 0.0000
vn -0.6428 -0.7660 0.0000
vn -0.7660 -0.6428 0.0000
vn -0.8660 -0.5000 0.0000
vn -0.9397 -0.3420 0.0000
vn -0.9848 -0.1736 0.0000
usemtl None
s 1
f 1/1/1 2/2/1 3/3/2
f 4/4/3 3/3/2 2/2/1
f 5/5/1 1/1/1 3/3/2
f 4/4/3 2/2/1 6/6/1
f 7/7/1 5/5/1 3/3/2
f 4/4/3 6/6/1 8/8/1
f 9/9/1 3/3/2 10/10/4
f 4/4/3 8/8/1 11/11/1
f 12/12/1 4/4/3 11/11/1
f 9/9/1 7/7/1 3/3/2
f 13/13/1 9/9/1 10/10/4
f 14/14/5 4/4/3 12/12/1
f 15/15/1 13/13/1 10/10/4
f 14/14/5 12/12/1 16/16/1
f 17/17/1 15/15/1 10/10/4
f 14/14/5 16/16/1 18/18/1
f 19/19/1 17/17/1 10/10/4
f 14/14/5 18/18/1 20/20/1
f 21/21/1 19/19/1 10/10/4
f 14/14/5 20/20/1 22/22/1
f 23/23/1 21/21/1 10/10/4
f 14/14/5 22/22/1 24/24/1
f 25/25/1 23/23/1 10/10/4
f 14/14/5 24/24/1 26/26/1
f 27/27/1 25/25/1 10/10/4
f 14/14/5 26/26/1 28/28/1
f 14/14/5 28/28/1 29/29/1
f 30/30/1 27/27/1 10/10/4
f 14/14/5 29/29/1 31/31/1
f 32/32/1 30/30/1 10/10/4
f 14/14/5 31/31/1 33/33/1
f 34/34/1 32/32/1 10/10/4
f 14/14/5 33/33/1 35/35/1
f 36/36/1 34/34/1 10/10/4
f 14/14/5 35/35/1 37/37/1
f 38/38/1 36/36/1 10/10/4
f 14/14/5 37/37/1 39/39/1
f 40/40/1 38/38/1 10/10/4
f 14/14/5 39/39/1 40/40/1
f 40/40/1 10/10/4 14/14/5
f 41/41/6 42/42/7 14/43/5 10/44/4
f 43/45/8 44/46/9 45/47/9
f 44/46/9 43/45/8 46/48/10
f 43/45/8 45/47/9 47/49/9
f 48/50/9 44/46/9 46/48/10
f 43/45/8 47/49/9 49/51/9
f 50/52/9 48/50/9 46/48/10
f 51/53/9 43/45/8 49/51/9
f 52/54/9 50/52/9 46/48/10
f 53/55/9 46/48/10 42/56/7
f 41/57/6 43/45/8 51/53/9
f 41/57/6 51/53/9 54/58/9
f 53/55/9 52/54/9 46/48/10
f 41/57/6 54/58/9 55/59/9
f 56/60/9 53/55/9 42/56/7
f 41/57/6 55/59/9 57/61/9
f 58/62/9 56/60/9 42/56/7
f 41/57/6 57/61/9 59/63/9
f 60/64/9 58/62/9 42/56/7
f 41/57/6 59/63/9 61/65/9
f 62/66/9 60/64/9 42/56/7
f 41/57/6 61/65/9 63/67/9
f 64/68/9 62/66/9 42/56/7
f 41/57/6 63/67/9 65/69/9
f 66/70/9 64/68/9 42/56/7
f 41/57/6 65/69/9 67/71/9
f 68/72/9 66/70/9 42/56/7
f 69/73/9 68/72/9 42/56/7
f 41/57/6 67/71/9 70/74/9
f 71/75/9 69/73/9 42/56/7
f 41/57/6 70/74/9 72/76/9
f 73/77/9 71/75/9 42/56/7
f 41/57/6 72/76/9 74/78/9
f 75/79/9 73/77/9 42/56/7
f 41/57/6 74/78/9 76/80/9
f 77/81/9 75/79/9 42/56/7
f 41/57/6 76/80/9 78/82/9
f 79/83/9 77/81/9 42/56/7
f 41/57/6 78/82/9 80/84/9
f 80/84/9 79/83/9 42/56/7
f 80/84/9 42/56/7 41/57/6
f 3/85/2 4/86/3 46/87/10 43/88/8
f 14/89/5 42/42/7 46/87/10 4/90/3
f 41/41/6 10/91/4 3/92/2 43/88/8
f 81/93/11 82/94/11 83/95/12 84/96/12
f 84/96/12 83/95/12 85/97/13 86/98/13
f 86/98/13 85/97/13 87/99/14 88/100/14
f 88/100/14 87/99/14 89/101/15 90/102/15
f 90/102/15 89/101/15 91/103/16 92/104/16
f 93/105/17 94/106/17 92/104/16 91/103/16
f 95/107/18 96/108/18 94/106/17 93/105/17
f 97/109/19 98/110/19 96/108/18 95/107/18
f 99/111/20 100/112/20 98/110/19 97/109/19
f 101/113/21 102/114/21 100/112/20 99/111/20
f 103/115/22 104/116/22 102/114/21 101/113/21
f 105/117/23 106/118/23 104/116/22 103/115/22
f 107/119/24 108/120/24 106/118/23 105/117/23
f 109/121/25 110/122/25 108/120/24 107/119/24
f 111/123/26 112/124/26 110/122/25 109/121/25
f 113/125/27 114/126/27 112/124/26 111/123/26
f 115/127/28 116/128/28 114/126/27 113/125/27
f 117/129/29 118/130/29 116/128/28 115/127/28
f 119/131/30 120/132/30 118/130/29 117/129/29
f 121/133/31 122/134/31 120/132/30 119/131/30
f 123/135/32 124/136/32 122/134/31 121/133/31
f 125/137/33 126/138/33 124/136/32 123/135/32
f 127/139/34 128/140/34 126/138/33 125/137/33
f 129/141/35 130/142/35 128/140/34 127/139/34
f 131/143/36 132/144/36 130/142/35 129/141/35
f 133/145/37 134/146/37 132/144/36 131/143/36
f 135/147/38 136/148/38 134/146/37 133/145/37
f 137/149/39 138/150/39 136/148/38 135/147/38
f 139/151/40 140/152/40 138/150/39 137/149/39
f 141/153/41 142/154/41 140/152/40 139/151/40
f 143/155/42 144/156/42 142/154/41 141/153/41
f 145/157/43 146/158/43 144/156/42 143/155/42
f 146/158/43 145/157/43 147/159/44 148/160/44
f 148/160/44 147/159/44 149/161/45 150/162/45
f 150/162/45 149/161/45 151/163/46 152/164/46
f 152/164/46 151/163/46 82/165/11 81/166/11
