<?xml version="1.0" encoding="utf-8"?>
<!-- Generator: Adobe Illustrator 20.1.0, SVG Export Plug-In . SVG Version: 6.00 Build 0)  -->
<svg version="1.1" id="Calque_1" xmlns="http://www.w3.org/2000/svg" xmlns:xlink="http://www.w3.org/1999/xlink" x="0px" y="0px"
	 viewBox="0 0 200 200" style="enable-background:new 0 0 200 200;" xml:space="preserve">
<style type="text/css">
	.st0{fill:none;stroke:#000000;stroke-linecap:round;stroke-linejoin:round;stroke-miterlimit:10;}
</style>
<polygon class="st0" points="113.5,89.9 113.5,104.9 100.5,112.4 87.5,104.9 87.5,89.9 100.5,82.4 "/>
<g>
	<polyline class="st0" points="96,99.5 98.5,99.5 98.5,102 	"/>
	<line class="st0" x1="95" y1="103" x2="98.5" y2="99.5"/>
	<polyline class="st0" points="102.5,102 102.5,99.5 105,99.5 	"/>
	<line class="st0" x1="106" y1="103" x2="102.5" y2="99.5"/>
	<polyline class="st0" points="96,95.5 98.5,95.5 98.5,93 	"/>
	<line class="st0" x1="95" y1="92" x2="98.5" y2="95.5"/>
	<polyline class="st0" points="102.5,93 102.5,95.5 105,95.5 	"/>
	<line class="st0" x1="106" y1="92" x2="102.5" y2="95.5"/>
	<g>
		<path d="M100.5,96.7c-0.5,0-0.9,0.4-0.9,0.9s0.4,0.9,0.9,0.9s0.9-0.4,0.9-0.9S101,96.7,100.5,96.7L100.5,96.7z"/>
	</g>
</g>
</svg>
