<?xml version="1.0" encoding="utf-8"?>
<!-- Generator: Adobe Illustrator 20.1.0, SVG Export Plug-In . SVG Version: 6.00 Build 0)  -->
<svg version="1.1" id="Calque_1" xmlns="http://www.w3.org/2000/svg" xmlns:xlink="http://www.w3.org/1999/xlink" x="0px" y="0px"
	 viewBox="0 0 150 150" style="enable-background:new 0 0 150 150;" xml:space="preserve">
<style type="text/css">
	.st0{fill:#010202;}
</style>
<g id="_x35_gquTH.tif_1_">
	<g>
		<path class="st0" d="M62.3,31.5c0-7,5.7-12.8,12.8-12.8c7.1,0,12.8,5.7,12.8,12.8c0,7-5.7,12.7-12.8,12.7
			C68,44.3,62.2,38.6,62.3,31.5z M75,34.3c1.6,0,2.8-1.2,2.9-2.8c0-1.5-1.2-2.8-2.8-2.8c-1.6,0-2.8,1.2-2.8,2.8
			C72.3,33.1,73.5,34.3,75,34.3z"/>
		<path class="st0" d="M65.4,42.9C65.2,43,65.1,43,65,43.1c-0.5,0.4-1,0.7-1.4,1.2c-0.7,0.7-0.6,1.7,0.1,2.4c0.5,0.5,1.1,0.8,1.7,1
			c4.1,1.2,8.2,2.5,12.3,3.7c1.8,0.5,3.5,1.1,5.2,1.7c1,0.4,2,0.8,2.9,1.4c3.1,2.1,4.2,5.1,3.6,8.7c-0.5,2.9-2.1,4.9-4.7,6.2
			c0,0-0.1,0.1-0.1,0.1c-0.1,0-0.3,0-0.4,0c0.1-0.1,0.2-0.2,0.3-0.2c0.4-0.3,0.8-0.5,1.2-0.7c0.4-0.3,0.8-0.7,1.1-1.1
			c0.7-0.9,0.6-1.8-0.2-2.6c-0.5-0.5-1.1-0.8-1.8-1c-3.8-1.1-7.5-2.3-11.3-3.4c-2-0.6-4-1.2-6-1.9c-1.9-0.6-3.6-1.6-4.9-3.1
			c-3-3.3-2.8-9.7,2.2-12.5c0.2-0.1,0.3-0.1,0.5-0.2C65.3,42.8,65.3,42.8,65.4,42.9z"/>
		<path class="st0" d="M24.4,124c0.1-4.2,3.7-7.6,7.9-7.2c0.6,0.1,1.3,0.3,1.9,0.4c0.3,0.1,0.4,0.2,0.3,0.6
			c-0.2,0.4-0.4,0.8-0.5,1.3c-0.1,0.4-0.3,0.4-0.7,0.3c-2.2-0.7-4.5,0.1-5.7,2.1c-1.9,3,0,7,3.6,7.5c1.2,0.1,2.2-0.1,3.2-0.7
			c0.3-0.2,0.4-0.1,0.6,0.1c0.3,0.4,0.6,0.8,1,1.1c0.3,0.3,0.2,0.4-0.1,0.6c-1.5,1-3.1,1.4-4.9,1.2c-3.1-0.4-5.6-2.6-6.3-5.6
			C24.5,125,24.5,124.5,24.4,124z"/>
		<path class="st0" d="M32.2,75.1c-0.8,0-1.5,0-2.2,0c-0.1,0-0.2-0.1-0.3-0.2c-1.1-1.2-2.7-1.5-4.1-0.8c-1.4,0.7-2.2,2.4-1.8,4
			c0.4,1.6,1.7,2.7,3.3,2.7c1.2,0,2.1-0.4,2.9-1.3c0.1-0.1,0.2-0.3,0.3-0.5c-0.2,0-0.4,0-0.6,0c-1.1,0-2.1,0-3.2,0
			c-0.3,0-0.5-0.1-0.5-0.5c0-1.3,0-1.3,1.3-1.3c1.6,0,3.2,0,4.8,0c0.5,0,0.6,0,0.5,0.6c-0.1,2.2-1.9,4.2-4.2,4.7
			c-3.2,0.7-6.2-1.4-6.6-4.7c-0.3-2.1,1-4.3,3.1-5.3c2.4-1.1,5.3-0.3,6.8,1.8C31.9,74.5,32,74.7,32.2,75.1z"/>
		<path class="st0" d="M107.9,75.1c0,0.2,0,0.3,0,0.5c0,2,0,4,0,6.1c0,0.6,0,0.6-0.6,0.6c-0.3,0-0.6,0-0.9,0c-0.3,0-0.4-0.1-0.3-0.4
			c0-0.1,0-0.2,0-0.2c0-3,0-6,0-9c0-0.6,0-0.6,0.6-0.6c0.5,0,1.1-0.1,1.5,0.1c0.4,0.2,0.6,0.8,0.8,1.3c1,1.8,2,3.6,3.1,5.4
			c0.1,0.1,0.2,0.3,0.3,0.4c0,0,0.1,0,0.1,0c0-0.2,0-0.3,0-0.5c0-2,0-4.1,0-6.1c0-0.5,0-0.5,0.5-0.5c0.3,0,0.6,0,0.9,0
			c0.3,0,0.4,0.1,0.4,0.4c0,0,0,0.1,0,0.1c0,3,0,6,0,9.1c0,0.6,0,0.6-0.5,0.6c-0.5,0-1.1,0.1-1.5-0.1c-0.4-0.2-0.6-0.8-0.8-1.2
			c-1.1-1.8-2.1-3.6-3.1-5.5c-0.1-0.1-0.2-0.3-0.3-0.4C107.9,75.1,107.9,75.1,107.9,75.1z"/>
		<path class="st0" d="M48.9,77.3c0,2.9-2.4,5.2-5.3,5.2c-2.9,0-5.3-2.4-5.3-5.3c0-2.9,2.4-5.3,5.4-5.3
			C46.5,71.9,48.9,74.3,48.9,77.3z M43.5,73.7c-1.9,0-3.4,1.6-3.4,3.5c0,1.9,1.5,3.5,3.4,3.5c1.9,0,3.4-1.6,3.4-3.5
			C47,75.2,45.4,73.7,43.5,73.7z"/>
		<path class="st0" d="M60.4,76.7c0.1,0.1,0.2,0.1,0.2,0.2c1.1,0.6,1.5,1.5,1.4,2.7c-0.1,1.2-0.7,2-1.8,2.4
			c-0.5,0.2-1.1,0.3-1.6,0.3c-0.9,0.1-1.8,0-2.8,0c-0.3,0-0.5-0.1-0.5-0.5c0-3.1,0-6.2,0-9.2c0-0.4,0.1-0.5,0.5-0.5
			c1.1,0,2.2,0,3.3,0.1c1.4,0.2,2.3,1.4,2.2,2.8C61.4,75.7,61,76.3,60.4,76.7z M57.2,79.2c0,0.3,0,0.7,0,1c0,0.1,0.2,0.3,0.3,0.3
			c0.5,0,1.1,0,1.6-0.1c0.7-0.1,1-0.6,1-1.2c0-0.6-0.3-1.1-0.9-1.2c-0.5-0.1-1-0.1-1.6-0.1c-0.1,0-0.3,0.2-0.3,0.3
			C57.2,78.5,57.2,78.8,57.2,79.2z M57.2,75C57.2,75,57.2,75,57.2,75c0,0.2,0,0.5,0,0.7c0,0.2,0.1,0.4,0.4,0.3c0.4,0,0.8,0,1.2-0.1
			c0.4-0.1,0.7-0.4,0.7-0.9c0-0.7-0.4-1.1-1.3-1.2c-1,0-0.8,0-0.8,0.9C57.2,74.9,57.2,74.9,57.2,75z"/>
		<path class="st0" d="M127.1,74.8c-0.1,0-0.2,0-0.3,0c-0.4,0-0.6,0-0.7-0.5c-0.1-0.5-0.5-0.7-1.1-0.6c-0.4,0-0.8,0.3-0.9,0.7
			c-0.2,0.5,0,1,0.4,1.3c0.3,0.2,0.6,0.3,0.8,0.4c0.4,0.2,0.8,0.3,1.2,0.5c1.6,0.8,2.2,2.3,1.6,4c-0.5,1.4-2.1,2.3-3.6,2
			c-1.4-0.3-2.5-1.2-2.7-2.5c-0.1-0.5,0-0.6,0.5-0.6c0.2,0,0.4,0,0.6,0c0.5,0,0.9,0,1.1,0.6c0.1,0.6,0.7,0.8,1.4,0.7
			c0.6-0.1,1-0.5,1.1-0.9c0.1-0.6-0.1-1.2-0.6-1.5c-0.4-0.2-0.7-0.3-1.1-0.5c-0.3-0.1-0.5-0.2-0.8-0.3c-1.8-0.8-2-2.6-1.5-3.8
			c0.6-1.4,2.3-2.1,3.8-1.5c1,0.4,1.7,1.1,1.9,2.2c0.1,0.4,0,0.5-0.4,0.5C127.5,74.8,127.3,74.8,127.1,74.8z"/>
		<path class="st0" d="M69.9,77.2c0-1.5,0-3,0-4.5c0-0.6,0-0.6,0.5-0.6c1.5,0,2.9,0,4.4,0c0.5,0,0.5,0,0.5,0.6c0,1.2,0,1.2-1.2,1.2
			c-0.7,0-1.3,0-2,0c-0.3,0-0.4,0.1-0.4,0.4c0,0.5,0,1.1,0,1.6c0,0.3,0.1,0.4,0.4,0.4c0.8,0,1.7,0,2.5,0c0.4,0,0.5,0.1,0.5,0.5
			c0,0.3,0,0.6,0,0.9c0,0.3-0.1,0.4-0.4,0.4c-0.9,0-1.7,0-2.6,0c-0.4,0-0.5,0.1-0.5,0.5c0,0.5,0,1,0,1.5c0,0.3,0.1,0.4,0.4,0.4
			c0.9,0,1.7,0,2.6,0c0.5,0,0.5,0,0.5,0.5c0,1.3,0,1.3-1.2,1.3c-1.2,0-2.5,0-3.7,0c-0.4,0-0.5-0.1-0.5-0.5
			C69.9,80.3,69.9,78.7,69.9,77.2z"/>
		<path class="st0" d="M27.8,124c0-2.6,2.5-4.5,5-3.7c0.5,0.1,0.5,0.2,0.3,0.6c-0.2,0.4-0.4,0.8-0.5,1.3c-0.1,0.3-0.2,0.4-0.5,0.3
			c-1-0.1-1.8,0.5-1.8,1.5c0,1,0.7,1.7,1.8,1.6c0.3,0,0.5,0,0.7,0.3c0.3,0.4,0.6,0.7,0.9,1c0.3,0.4,0.3,0.4-0.1,0.6
			c-2,1-4.5,0.1-5.3-1.9c-0.1-0.2-0.2-0.5-0.2-0.8C27.9,124.5,27.9,124.2,27.8,124z"/>
		<path class="st0" d="M83.3,77.2c0-1.5,0-3,0-4.5c0-0.5,0-0.5,0.6-0.5c0.3,0,0.6,0,0.8,0c0.4,0,0.5,0.1,0.5,0.5c0,2.4,0,4.8,0,7.2
			c0,0.6,0,0.6,0.7,0.6c0.7,0,1.3,0,2,0c0.3,0,0.5,0.1,0.5,0.4c0,0.3,0,0.7,0,1c0,0.2-0.1,0.4-0.3,0.4c-1.4,0-2.8,0-4.2,0
			c-0.4,0-0.4-0.2-0.4-0.5C83.3,80.2,83.3,78.7,83.3,77.2z"/>
		<path class="st0" d="M129.7,113.1c-36.2,0-72.5,0-108.8,0c0,0,0-0.1,0-0.1c0,0,0,0,0,0c0.1,0,0.2,0,0.2,0c36.1,0,72.2,0,108.3,0
			c0.1,0,0.1,0,0.2,0.1C129.7,113,129.7,113,129.7,113.1z"/>
		<path class="st0" d="M95.6,77.2c0-1.5,0-3,0-4.5c0-0.6,0-0.6,0.6-0.6c0.3,0,0.6,0,0.8,0c0.4,0,0.5,0.1,0.5,0.5c0,2.1,0,4.2,0,6.2
			c0,1,0,2,0,3c0,0.4-0.1,0.5-0.5,0.5c-0.3,0-0.6,0-0.9,0c-0.4,0-0.5-0.1-0.5-0.5C95.6,80.3,95.6,78.7,95.6,77.2z"/>
		<path class="st0" d="M103.7,86.5c-0.6,1.5-1.3,3-1.9,4.5c-0.1,0.3-0.3,0.6-0.4,0.9c-0.1,0.2-0.2,0.4-0.5,0.4
			c-0.3,0-0.4-0.2-0.5-0.4c-0.7-1.6-1.3-3.2-2-4.8c-0.1-0.2-0.2-0.4-0.3-0.6c0,0.2,0,0.3,0,0.5c0,1.6,0,3.2,0,4.8
			c0,0.2-0.1,0.4-0.2,0.5c-0.2,0.2-0.5,0-0.5-0.3c0-2,0-4.1,0-6.1c0-0.3,0.1-0.3,0.4-0.3c0.6,0,0.7,0,0.9,0.6c0.7,1.5,1.3,3,1.9,4.6
			c0.1,0.2,0.2,0.4,0.3,0.6c0.1-0.2,0.2-0.4,0.2-0.5c0.7-1.6,1.4-3.2,2.1-4.8c0.2-0.4,0.7-0.6,1.1-0.4c0.1,0.1,0.2,0.3,0.2,0.5
			c0,1.2,0,2.4,0,3.6c0,0.8,0,1.5,0,2.3c0,0.2,0,0.4-0.3,0.4c-0.3,0-0.4-0.2-0.4-0.4c0-1.6,0-3.2,0-4.8c0-0.2,0-0.3,0-0.5
			C103.8,86.5,103.8,86.5,103.7,86.5z"/>
		<path class="st0" d="M121.9,87.2c-0.4,0.1-0.7,0.1-1-0.3c-0.8-1-2.2-1.2-3.4-0.7c-1.1,0.5-1.8,1.7-1.7,2.9
			c0.1,1.2,1.1,2.2,2.3,2.5c1.2,0.3,2.5-0.2,3.1-1.3c0.1-0.2,0.2-0.3,0.3-0.6c-0.3,0-0.5,0-0.7,0c-0.9,0-1.8,0-2.7,0
			c-0.2,0-0.4,0-0.4-0.3c0-0.3,0.1-0.3,0.4-0.3c1.3,0,2.6,0,3.9,0c0.3,0,0.4,0.2,0.3,0.4c-0.1,0.8-0.5,1.4-1.1,2
			c-1.2,1-2.6,1.2-4,0.5c-1.3-0.6-2.1-1.7-2.1-3.2c0-1.5,1.1-2.9,2.6-3.3c1.5-0.4,3.2,0.1,4,1.3C121.8,86.9,121.8,87,121.9,87.2z"/>
		<path class="st0" d="M114.4,123.5c0,0.9,0,1.8,0,2.6c0,0.4-0.1,0.5-0.5,0.5c-0.4,0-0.5-0.1-0.5-0.5c0-1.3,0-2.7,0-4
			c0-0.4,0.1-0.5,0.5-0.5c0.6,0,0.9,0.1,1.1,0.7c0.3,0.7,0.8,1.4,1.2,2.3c0-0.2,0.1-0.3,0.1-0.5c0-0.7,0-1.3,0-2
			c0-0.4,0.2-0.4,0.5-0.4c0.3,0,0.5,0,0.5,0.4c0,1.4,0,2.8,0,4.2c0,0.1-0.1,0.4-0.2,0.4c-0.3,0-0.7,0.2-0.9-0.2
			c-0.3-0.5-0.5-0.9-0.8-1.4c-0.3-0.5-0.6-1-0.8-1.5C114.5,123.5,114.4,123.5,114.4,123.5z"/>
		<path class="st0" d="M47.6,92.3c-2,0-3.6-1.5-3.6-3.5c0-2,1.6-3.6,3.6-3.6c2,0,3.6,1.6,3.6,3.5C51.2,90.8,49.6,92.3,47.6,92.3z
			 M44.7,88.8c0,1.6,1.3,2.9,2.9,2.9c1.6,0,2.9-1.3,2.9-2.9c0-1.6-1.3-2.9-2.9-2.9C46,85.9,44.7,87.2,44.7,88.8z"/>
		<path class="st0" d="M42,123.8c0,0.3,0,0.5,0,0.8c0.1,0.9,0.9,1.3,1.7,0.9c0.2-0.1,0.4-0.4,0.4-0.6c0.1-0.3,0.2-0.4,0.6-0.3
			c0.8,0.1,0.9,0.2,0.5,0.9c-0.4,0.8-1.2,1.3-2.3,1.2c-1.2-0.1-1.8-0.7-2-1.9c-0.1-0.8-0.1-1.6,0.1-2.3c0.2-0.7,0.7-1.2,1.4-1.3
			c0.6-0.1,1.2-0.1,1.7,0c0.7,0.1,1.2,0.8,1.3,1.5c0,0.2,0,0.3-0.2,0.3c-0.2,0-0.3,0-0.5,0.1c-0.3,0.1-0.5,0-0.6-0.3
			c-0.1-0.5-0.4-0.6-0.9-0.7c-0.6,0-0.9,0.2-1.1,0.6c0,0.1-0.1,0.2-0.1,0.3C42.1,123.3,42,123.6,42,123.8z"/>
		<path class="st0" d="M47.1,123.9c0,0.2,0,0.5,0,0.7c0.1,0.8,1,1.3,1.7,0.9c0.2-0.1,0.4-0.4,0.4-0.7c0.1-0.3,0.2-0.4,0.5-0.3
			c0.8,0.1,0.9,0.2,0.5,1c-0.4,0.8-1.3,1.3-2.3,1.2c-1.2-0.1-1.8-0.7-2-1.9c-0.1-0.8-0.1-1.6,0.1-2.4c0.2-0.7,0.7-1.1,1.3-1.2
			c0.6-0.1,1.2-0.1,1.7,0c0.8,0.1,1.1,0.7,1.3,1.4c0.1,0.3,0,0.4-0.3,0.4c-0.2,0-0.3,0-0.5,0.1c-0.3,0.1-0.4,0-0.5-0.3
			c-0.1-0.5-0.4-0.7-0.9-0.7c-0.6,0-1,0.2-1.1,0.6C47.1,123.1,47.1,123.5,47.1,123.9C47,123.9,47,123.9,47.1,123.9z"/>
		<path class="st0" d="M68.1,88.8c0-0.9,0-1.9,0-2.8c0-0.4,0.1-0.5,0.5-0.5c0.8,0.1,1.6,0,2.4,0.1c1.4,0.2,2.3,1,2.7,2.3
			c0.4,1.3,0.1,2.5-0.9,3.5c-0.6,0.6-1.3,0.8-2.1,0.9c-0.7,0-1.4,0-2.1,0c-0.3,0-0.5-0.1-0.5-0.5C68.1,90.8,68.1,89.8,68.1,88.8z
			 M68.7,88.8c0,0.8,0,1.6,0,2.4c0,0.2,0,0.4,0.3,0.4c0.8,0,1.5,0,2.3-0.2c1.1-0.3,1.8-1.4,1.8-2.6c0-1.1-0.7-2.3-1.8-2.5
			c-0.7-0.2-1.5-0.2-2.3-0.2c-0.3,0-0.3,0.2-0.3,0.4C68.7,87.3,68.7,88.1,68.7,88.8z"/>
		<path class="st0" d="M67.8,126.6c-0.4,0-0.6,0-0.9,0c-0.1,0-0.3-0.2-0.3-0.3c-0.2-0.4-0.4-0.8-0.6-1.2c-0.2-0.3-0.7-0.5-1-0.3
			c-0.1,0.1-0.1,0.2-0.1,0.3c0,0.4,0,0.8,0,1.2c0,0.4-0.2,0.4-0.5,0.4c-0.3,0-0.5,0-0.5-0.4c0-1.4,0-2.8,0-4.2
			c0-0.3,0.1-0.4,0.4-0.4c0.7,0,1.4,0,2.2,0c0.7,0,1.2,0.4,1.3,0.9c0.2,0.7,0,1.4-0.5,1.8c-0.3,0.2-0.3,0.4-0.1,0.6
			C67.3,125.5,67.5,126,67.8,126.6z M65.5,123.8c0.2,0,0.3,0,0.5,0c0.4-0.1,0.6-0.3,0.6-0.7c0-0.4-0.2-0.6-0.6-0.6
			c-0.2,0-0.4,0-0.6,0c-0.6,0-0.6,0-0.6,0.6C64.8,123.9,64.7,123.8,65.5,123.8z"/>
		<path class="st0" d="M104.2,124.1c0-0.7,0-1.4,0-2.1c0-0.3,0.1-0.4,0.4-0.4c0.7,0,1.4,0,2.1,0c0.7,0,1.2,0.4,1.4,0.9
			c0.2,0.7,0,1.4-0.6,1.8c-0.2,0.2-0.2,0.3-0.1,0.5c0.2,0.4,0.4,0.9,0.6,1.3c0.2,0.4,0.2,0.4-0.3,0.5c-0.5,0.1-0.8-0.1-0.9-0.6
			c-0.1-0.4-0.3-0.7-0.5-1c-0.2-0.3-0.4-0.4-0.9-0.3c-0.4,0.1-0.2,0.4-0.2,0.6c0,0.3,0,0.7,0,1c0,0.4-0.3,0.3-0.5,0.3
			c-0.2,0-0.5,0.1-0.5-0.3C104.3,125.6,104.3,124.8,104.2,124.1L104.2,124.1z M106,123.8C106,123.8,106,123.8,106,123.8
			c0.2,0,0.4,0,0.6,0c0.3-0.1,0.5-0.2,0.5-0.5c0.1-0.4-0.1-0.7-0.5-0.8c-0.4-0.1-0.8,0-1.2,0c0,0.3-0.1,0.6-0.1,0.9
			c0,0.3,0.1,0.4,0.4,0.4C105.8,123.8,105.9,123.8,106,123.8z"/>
		<path class="st0" d="M88.9,124.1c0-0.7,0-1.3,0-2c0-0.3,0.1-0.5,0.4-0.5c0.5,0,1,0,1.6,0c1.1,0,1.7,0.5,1.9,1.6
			c0.1,0.6,0,1.2-0.1,1.9c-0.2,0.9-0.8,1.4-1.7,1.5c-0.6,0-1.2,0-1.8,0c-0.3,0-0.4-0.1-0.4-0.4c0,0,0-0.1,0-0.1
			C88.8,125.4,88.9,124.8,88.9,124.1z M89.9,124.1c0,0.4,0,0.9,0,1.3c0,0.1,0.1,0.3,0.2,0.3c0.7,0.3,1.5-0.2,1.6-0.9
			c0.1-0.4,0.1-0.9,0-1.3c-0.1-0.9-0.7-1.3-1.6-1c-0.1,0-0.2,0.2-0.2,0.3C89.9,123.2,89.9,123.7,89.9,124.1z"/>
		<path class="st0" d="M37.3,123.6c0,1.6-0.4,2.7-1.2,3.7c-0.2,0.3-0.4,0.3-0.6,0c-0.3-0.4-0.7-0.8-1-1.1c-0.2-0.2-0.2-0.3-0.1-0.6
			c0.6-0.9,0.7-1.9,0.3-3c-0.1-0.2,0-0.4,0.2-0.5c0.5-0.2,1-0.4,1.5-0.7c0.2-0.1,0.4-0.1,0.4,0.2C37,122.5,37.2,123.3,37.3,123.6z"
			/>
		<path class="st0" d="M72.1,121.5c0.9,0.1,1.5,0.2,1.9,0.9c0.2,0.4,0.2,0.4-0.2,0.5c-0.4,0.1-0.7,0.1-1-0.3c-0.2-0.3-1-0.2-1.3,0
			c-0.2,0.2-0.2,0.5,0.1,0.7c0.3,0.1,0.6,0.2,0.8,0.3c0.3,0.1,0.6,0.2,0.9,0.3c0.5,0.2,0.8,0.6,0.8,1.2c0,0.6-0.2,1-0.7,1.3
			c-0.9,0.5-1.8,0.5-2.7,0c-0.2-0.1-0.4-0.3-0.5-0.4c-0.1-0.2-0.2-0.5-0.3-0.7c0.3-0.1,0.6-0.1,0.8-0.2c0.1,0,0.2,0.1,0.3,0.2
			c0.3,0.5,1.3,0.7,1.7,0.3c0.3-0.2,0.3-0.6-0.1-0.8c-0.2-0.1-0.4-0.2-0.6-0.2c-0.4-0.1-0.8-0.2-1.1-0.3c-0.6-0.2-0.8-0.6-0.8-1.3
			c0-0.6,0.3-1,0.9-1.2C71.5,121.6,71.9,121.6,72.1,121.5z"/>
		<path class="st0" d="M122.7,124.1c0-0.7,0-1.4,0-2.1c0-0.3,0.1-0.4,0.4-0.4c0.9,0,1.7,0,2.6,0c0.3,0,0.5,0.1,0.5,0.5
			c0,0.4-0.1,0.5-0.5,0.5c-0.5,0-1,0-1.5,0c-0.3,0-0.4,0.1-0.4,0.4c0,0.3,0.1,0.5,0.4,0.5c0.4,0,0.9,0,1.3,0c0.4,0,0.4,0.2,0.4,0.5
			c0,0.3-0.1,0.4-0.4,0.4c-0.4,0-0.9,0-1.3,0c-0.3,0-0.4,0.1-0.4,0.4c0,1.1-0.1,0.9,0.9,0.9c0.4,0,0.8,0,1.1,0
			c0.3,0,0.3,0.2,0.3,0.5c0,0.2,0,0.5-0.3,0.5c-0.9,0-1.8,0-2.7,0c-0.3,0-0.4-0.2-0.4-0.4C122.7,125.5,122.7,124.8,122.7,124.1z"/>
		<path class="st0" d="M113,92.2c-0.1-0.1-0.2-0.2-0.3-0.3c-0.3-0.5-0.5-1-0.7-1.6c-0.1-0.3-0.3-0.4-0.6-0.4c-0.8,0-1.6,0-2.4,0
			c-0.2,0-0.4,0.1-0.5,0.3c-0.2,0.5-0.4,1-0.7,1.5c0,0.1-0.1,0.3-0.2,0.3c-0.2,0.1-0.4,0.1-0.6,0.1c0-0.1,0-0.3,0-0.4
			c0.8-2,1.7-4,2.6-6c0.1-0.2,0.2-0.4,0.5-0.4c0.3,0,0.5,0.1,0.6,0.4c0.9,2,1.7,4,2.6,6.1C113.5,92.2,113.5,92.3,113,92.2z
			 M110.3,86.4c0,0-0.1,0-0.1,0c-0.4,0.9-0.8,1.8-1.1,2.7c-0.1,0.2,0,0.3,0.2,0.3c0.7,0,1.3,0,2,0c0.2,0,0.3-0.1,0.2-0.3
			C111,88.2,110.7,87.3,110.3,86.4z"/>
		<path class="st0" d="M42.4,90.5c-0.6,1.3-2.3,2.1-3.7,1.8c-1.7-0.3-2.9-1.8-2.9-3.4c0-1.7,1.2-3.1,2.8-3.5
			c1.5-0.3,3.2,0.5,3.8,1.7c-0.3,0.1-0.6,0.1-0.9-0.2c-0.9-1-2.3-1.3-3.5-0.6c-1.2,0.7-1.8,2.1-1.4,3.3c0.4,1.3,1.6,2.2,2.9,2.1
			c0.8,0,1.4-0.4,1.9-0.9C41.7,90.5,42,90.4,42.4,90.5z"/>
		<path class="st0" d="M93.4,124.1c0-0.7,0-1.4,0-2.1c0-0.3,0.1-0.4,0.4-0.4c0.9,0,1.7,0,2.6,0c0.3,0,0.4,0.1,0.4,0.4
			c0,0.3-0.1,0.5-0.4,0.5c-0.5,0-1.1,0-1.6,0c-0.3,0-0.4,0.1-0.4,0.4c0,0.3,0,0.5,0.4,0.5c0.4,0,0.7,0,1.1,0c0.7,0,0.7,0,0.7,0.4
			c0,0.5,0,0.5-0.7,0.5c-0.4,0-0.7,0-1.1,0c-0.3,0-0.4,0.1-0.4,0.4c0,1.2-0.1,1,0.9,1c0.4,0,0.7,0,1.1,0c0.4,0,0.4,0.2,0.4,0.5
			c0,0.3-0.1,0.4-0.4,0.4c-0.9,0-1.8,0-2.7,0c-0.3,0-0.4-0.1-0.4-0.4C93.4,125.5,93.4,124.8,93.4,124.1z"/>
		<path class="st0" d="M82,124.1c0-0.7,0-1.4,0-2.1c0-0.3,0.1-0.4,0.4-0.4c0.9,0,1.7,0,2.6,0c0.4,0,0.4,0.2,0.4,0.5
			c0,0.3-0.1,0.5-0.4,0.5c-0.5,0-1,0-1.6,0c-0.3,0-0.4,0.1-0.4,0.4c0,0.3,0,0.5,0.4,0.5c0.5,0,0.9,0,1.4,0c0.4,0,0.4,0.2,0.4,0.5
			c0,0.3-0.1,0.4-0.4,0.4c-0.4,0-0.9,0-1.3,0c-0.3,0-0.5,0.1-0.5,0.5c0,1-0.1,0.9,0.9,0.9c0.4,0,0.8,0,1.1,0c0.4,0,0.3,0.2,0.4,0.5
			c0,0.3-0.1,0.4-0.4,0.4c-0.9,0-1.8,0-2.7,0c-0.3,0-0.4-0.1-0.4-0.4C82,125.5,82,124.8,82,124.1z"/>
		<path class="st0" d="M118,124.1c0-0.1,0-0.3,0-0.4c0.1-1.8,1.7-2.7,3.3-1.9c0.5,0.3,0.7,0.7,0.8,1.3c0,0.1-0.1,0.2-0.2,0.3
			c-0.1,0.1-0.3,0-0.4,0.1c-0.3,0.1-0.5,0.1-0.6-0.3c-0.1-0.4-0.4-0.6-0.8-0.6c-0.4,0-0.8,0.1-1,0.5c-0.3,0.7-0.3,1.5,0,2.3
			c0.2,0.5,0.6,0.5,1,0.5c0.4,0,0.7-0.2,0.8-0.6c0.1-0.4,0.3-0.5,0.7-0.4c0.6,0.1,0.6,0.1,0.4,0.7c-0.3,0.9-1.1,1.3-2.1,1.2
			c-1.2-0.1-1.8-0.7-1.9-1.9C117.9,124.5,118,124.3,118,124.1C118,124.1,118,124.1,118,124.1z"/>
		<path class="st0" d="M54.8,124.1c0-0.7,0-1.4,0-2.1c0-0.3,0.1-0.4,0.4-0.4c0.7,0,1.4,0,2.1,0c0.8,0,1.3,0.5,1.4,1.2
			c0.1,0.9-0.3,1.6-1.1,1.8c-0.4,0.1-0.9,0.1-1.3,0.1c-0.3,0-0.4,0.1-0.4,0.4c0,0.4,0,0.8,0,1.1c0,0.4-0.3,0.4-0.5,0.4
			c-0.3,0-0.5,0-0.5-0.4C54.8,125.5,54.8,124.8,54.8,124.1L54.8,124.1z M56.6,122.5C56.6,122.5,56.6,122.5,56.6,122.5
			c-0.1,0-0.3,0-0.4,0c-0.2,0-0.3,0.1-0.3,0.3c-0.1,1.1,0.1,1.2,1.1,1.1c0,0,0.1,0,0.1,0c0.4-0.1,0.6-0.3,0.6-0.7
			c0-0.4-0.2-0.6-0.5-0.6C57,122.5,56.8,122.5,56.6,122.5z"/>
		<path class="st0" d="M112.3,126.6c-0.3,0.1-0.5-0.1-0.6-0.4c-0.1-0.5-0.3-0.6-0.8-0.6c-0.1,0-0.2,0-0.3,0c-0.7,0-0.7,0-1,0.7
			c-0.1,0.3-0.8,0.4-1,0.2c0,0,0-0.2,0-0.2c0.5-1.5,1-3,1.5-4.5c0.1-0.3,0.4-0.2,0.6-0.2c0.2,0,0.5-0.1,0.6,0.3
			c0.2,0.5,0.3,1,0.5,1.5c0.3,0.9,0.6,1.8,0.9,2.7C112.9,126.6,112.9,126.6,112.3,126.6z M110.7,123.3c0,0-0.1,0-0.1,0
			c-0.1,0.2-0.1,0.4-0.2,0.6c-0.3,1-0.3,1,0.8,0.8C111.1,124.3,110.9,123.8,110.7,123.3z"/>
		<path class="st0" d="M29.7,88.8c0-0.9,0-1.9,0-2.8c0-0.6,0-0.6,0.6-0.6c0.9,0,1.8,0,2.7,0c0.2,0,0.5-0.1,0.5,0.3
			c0,0.4-0.3,0.3-0.5,0.3c-0.7,0-1.4,0-2.1,0c-0.4,0-0.5,0.1-0.5,0.5c0,0.5,0,1,0,1.5c0,0.3,0.1,0.5,0.5,0.5c0.7,0,1.4,0,2.1,0
			c0.2,0,0.4,0,0.4,0.3c0,0.3-0.1,0.4-0.4,0.4c-0.7,0-1.4,0-2.1,0c-0.5,0-0.5,0-0.5,0.5c0,0.5,0,1,0,1.5c0,0.3,0.1,0.4,0.4,0.4
			c0.7,0,1.5,0,2.2,0c0.1,0,0.3,0,0.4,0.1c0.1,0.2,0,0.5-0.3,0.5c-1,0-2.1,0-3.1,0c-0.3,0-0.3-0.2-0.3-0.4
			C29.7,90.8,29.7,89.8,29.7,88.8z"/>
		<path class="st0" d="M59.3,88.8c0-1,0-2,0-3c0-0.3,0.1-0.5,0.5-0.5c1,0,1.9,0,2.9,0c0.2,0,0.4,0,0.4,0.3c0,0.4-0.2,0.3-0.5,0.3
			c-0.7,0-1.4,0-2.2,0c-0.3,0-0.4,0.1-0.4,0.4c0,0.5,0,1,0,1.6c0,0.3,0.1,0.4,0.4,0.4c0.7,0,1.4,0,2.1,0c0.2,0,0.4,0,0.4,0.3
			c0,0.3-0.2,0.3-0.4,0.3c-0.7,0-1.3,0-2,0c-0.4,0-0.5,0.1-0.5,0.5c0,0.5,0,1,0,1.5c0,0.4,0.1,0.5,0.5,0.5c0.7,0,1.4,0,2.1,0
			c0.2,0,0.4,0,0.4,0.3c0,0.3-0.2,0.3-0.4,0.3c-1,0-1.9,0-2.9,0c-0.3,0-0.5-0.1-0.5-0.5C59.3,90.8,59.3,89.8,59.3,88.8z"/>
		<path class="st0" d="M124.6,88.9c0-1,0-2,0-2.9c0-0.4,0.1-0.5,0.5-0.5c0.9,0,1.9,0,2.9,0c0.2,0,0.4,0,0.4,0.3
			c0,0.3-0.2,0.3-0.4,0.3c-0.7,0-1.4,0-2.2,0c-0.3,0-0.5,0.1-0.5,0.5c0,0.5,0,1,0,1.5c0,0.3,0.1,0.4,0.4,0.4c0.7,0,1.4,0,2.1,0
			c0.2,0,0.5,0,0.5,0.3c0,0.3-0.2,0.3-0.4,0.3c-0.7,0-1.4,0-2.1,0c-0.3,0-0.4,0.1-0.4,0.4c0,0.6,0,1.1,0,1.7c0,0.3,0.1,0.4,0.4,0.4
			c0.7,0,1.5,0,2.2,0c0.2,0,0.4,0,0.4,0.3c0,0.3-0.2,0.3-0.4,0.3c-1,0-1.9,0-2.9,0c-0.4,0-0.4-0.2-0.4-0.5
			C124.6,90.8,124.6,89.8,124.6,88.9z"/>
		<path class="st0" d="M76.5,88.8c0-1,0-1.9,0-2.9c0-0.4,0.1-0.5,0.5-0.5c0.9,0,1.9,0,2.8,0c0.2,0,0.4,0,0.4,0.3
			c0,0.3-0.2,0.3-0.4,0.3c-0.7,0-1.4,0-2.1,0c-0.4,0-0.5,0.1-0.5,0.5c0,0.5,0,0.9,0,1.4c0,0.5,0,0.5,0.5,0.5c0.7,0,1.3,0,2,0
			c0.2,0,0.4,0,0.4,0.3c0,0.3-0.2,0.3-0.4,0.3c-0.7,0-1.4,0-2.1,0c-0.3,0-0.4,0.1-0.4,0.4c0,0.5,0,1.1,0,1.6c0,0.3,0.1,0.4,0.4,0.4
			c0.7,0,1.4,0,2.2,0c0.1,0,0.4,0.1,0.4,0.2c0.1,0.2,0.1,0.4-0.3,0.4c-1,0-2.1,0-3.1,0c-0.3,0-0.3-0.2-0.3-0.4
			C76.5,90.8,76.5,89.8,76.5,88.8z"/>
		<path class="st0" d="M62.8,126.6c-0.5,0.1-0.7-0.1-0.7-0.4c-0.1-0.4-0.3-0.6-0.8-0.5c-0.1,0-0.2,0-0.2,0c-0.6-0.1-1,0-1.1,0.7
			c0,0.2-0.8,0.4-1,0.2c0-0.1,0-0.2,0-0.3c0.5-1.5,1-3,1.5-4.5c0.1-0.3,0.4-0.3,0.6-0.3c0.2,0,0.5-0.1,0.6,0.3c0.5,1.5,1,3,1.5,4.5
			C63.4,126.8,62.9,126.5,62.8,126.6z M61.1,123.3c0,0-0.1,0-0.1,0c-0.1,0.2-0.1,0.4-0.2,0.6c-0.3,0.9-0.3,1,0.7,0.8
			c0,0,0,0,0.1-0.1C61.4,124.2,61.3,123.8,61.1,123.3z"/>
		<path class="st0" d="M100.3,124.1c0-0.7,0-1.4,0-2.1c0-0.3,0.1-0.4,0.4-0.4c0.9,0,1.7,0,2.6,0c0.4,0,0.4,0.2,0.4,0.5
			c0,0.3-0.1,0.5-0.5,0.5c-0.5,0-1,0-1.5,0c-0.4,0-0.4,0.2-0.4,0.5c0,0.3,0,0.5,0.4,0.5c0.4,0,0.9,0,1.3,0c0.4,0,0.5,0.1,0.5,0.5
			c0,0.4-0.2,0.5-0.5,0.5c-0.4,0-0.9,0-1.3,0c-0.3,0-0.4,0.1-0.4,0.4c0,0.4,0,0.9,0,1.3c0,0.4-0.2,0.5-0.5,0.4c-0.3,0-0.5,0-0.5-0.4
			C100.3,125.5,100.3,124.8,100.3,124.1z"/>
		<path class="st0" d="M78.2,124.1c0-0.7,0-1.3,0-2c0-0.5,0-0.5,0.5-0.5c0.4,0,0.5,0.2,0.5,0.5c0,1,0,2.1,0,3.1
			c0,0.4,0.1,0.5,0.5,0.5c0.5,0,0.9,0,1.4,0c0.4,0,0.4,0.2,0.4,0.5c0,0.3,0,0.4-0.4,0.4c-0.9,0-1.7,0-2.6,0c-0.3,0-0.4-0.1-0.4-0.4
			C78.2,125.5,78.2,124.8,78.2,124.1z"/>
		<path class="st0" d="M34,121.5c0.2-0.5,0.4-0.9,0.6-1.4c0.3-0.7,0.6-1.3,0.9-2c0.1-0.3,0.3-0.4,0.5-0.2c0.6,0.5,1.1,1.1,1.7,1.7
			c0.1,0.1,0.2,0.3-0.1,0.4C36.5,120.5,35.3,121,34,121.5C34.1,121.5,34.1,121.5,34,121.5z"/>
		<path class="st0" d="M85.1,88.8c0-0.9,0-1.8,0-2.8c0-0.2-0.1-0.6,0.3-0.6c0.5,0,0.3,0.3,0.4,0.6c0,1.7,0,3.3,0,5
			c0,0.6,0,0.6,0.6,0.6c0.6,0,1.2,0,1.9,0c0.2,0,0.4,0,0.4,0.3c0,0.3-0.2,0.3-0.4,0.3c-0.9,0-1.8,0-2.7,0c-0.3,0-0.4-0.1-0.4-0.4
			C85.1,90.8,85.1,89.8,85.1,88.8L85.1,88.8z"/>
		<path class="st0" d="M21.9,88.8c0-1,0-1.9,0-2.9c0-0.2,0-0.5,0.3-0.5c0.4,0,0.4,0.2,0.4,0.5c0,1.7,0,3.4,0,5.1
			c0,0.7,0,0.7,0.7,0.7c0.6,0,1.1,0,1.7,0c0.2,0,0.4,0,0.4,0.3c0,0.3-0.2,0.3-0.4,0.3c-0.9,0-1.8,0-2.7,0c-0.3,0-0.5-0.1-0.5-0.5
			C21.9,90.8,21.9,89.8,21.9,88.8z"/>
		<path class="st0" d="M53.5,88.8c0-0.9,0-1.9,0-2.8c0-0.3-0.1-0.6,0.4-0.6c0.4,0,0.3,0.3,0.3,0.6c0,1.7,0,3.3,0,5
			c0,0.6,0,0.6,0.6,0.6c0.6,0,1.2,0,1.8,0c0.2,0,0.4,0,0.4,0.3c0,0.3-0.2,0.3-0.4,0.3c-0.9,0-1.8,0-2.7,0c-0.3,0-0.4-0.1-0.4-0.4
			C53.5,90.8,53.5,89.8,53.5,88.8z"/>
		<path class="st0" d="M52.3,123.9c0,0.8,0,1.5,0,2.3c0,0.4-0.1,0.5-0.5,0.5c-0.7,0-0.7,0-0.7-0.6c0-1.5,0-2.9,0-4.4
			c0-0.5,0-0.5,0.5-0.5c0.6,0,0.6,0,0.6,0.5C52.3,122.3,52.3,123.1,52.3,123.9z"/>
		<path class="st0" d="M68.4,124.1c0-0.7,0-1.4,0-2.1c0-0.4,0.2-0.4,0.5-0.4c0.3,0,0.6-0.1,0.6,0.4c0,1.4,0,2.8,0,4.2
			c0,0.5-0.3,0.4-0.6,0.4c-0.3,0-0.5,0-0.5-0.4C68.4,125.5,68.4,124.8,68.4,124.1z"/>
		<path class="st0" d="M77.2,124.1c0,0.7,0,1.4,0,2.1c0,0.4-0.2,0.4-0.5,0.4c-0.3,0-0.5,0-0.5-0.4c0-1.4,0-2.8,0-4.1
			c0-0.4,0.2-0.4,0.5-0.4c0.3,0,0.5,0,0.5,0.4C77.2,122.7,77.2,123.4,77.2,124.1z"/>
		<path class="st0" d="M94,88.9c0,1,0,1.9,0,2.9c0,0.2,0,0.5-0.3,0.5c-0.3,0-0.4-0.2-0.4-0.5c0-2,0-3.9,0-5.9c0-0.3,0-0.5,0.4-0.4
			c0.3,0,0.3,0.2,0.3,0.4C94,86.9,94,87.9,94,88.9z"/>
		<path class="st0" d="M43.5,109c0-0.3,0-0.5,0-0.8c0-0.2,0.1-0.3,0.3-0.3c0.2,0,0.3,0.1,0.3,0.3c0,0.9,0,1.8,0,2.8
			c0,0.3-0.2,0.3-0.4,0.3c-0.2,0-0.4,0-0.7,0c-0.6,0.1-0.9-0.2-1-0.7c0,0,0-0.1,0-0.1C41.9,109.2,42.3,108.8,43.5,109z M43.5,110.1
			c0-0.1,0-0.2,0-0.3c0-0.3-0.2-0.4-0.4-0.4c-0.1,0-0.3,0.2-0.3,0.4c-0.1,0.2,0,0.4,0,0.5c0,0.1,0.2,0.3,0.3,0.3
			c0.1,0,0.3-0.1,0.4-0.2C43.5,110.4,43.5,110.2,43.5,110.1z"/>
		<path class="st0" d="M23.5,110c0-0.2,0-0.5,0-0.7c0-0.3,0.1-0.4,0.4-0.4c0.3,0,0.5,0,0.8,0c0.5-0.1,0.8,0.1,0.8,0.6
			c0,0.5,0,0.9,0,1.4c0,0.2-0.1,0.3-0.3,0.3c-0.2,0-0.3-0.1-0.3-0.3c0-0.4,0-0.7,0-1.1c0-0.1-0.2-0.3-0.3-0.4
			c-0.2-0.1-0.4,0.1-0.4,0.3c0,0.3,0,0.7,0,1c0,0.2,0,0.4-0.3,0.4c-0.3,0-0.4-0.2-0.4-0.4C23.5,110.6,23.5,110.3,23.5,110z"/>
		<path class="st0" d="M50.9,109.5c-0.2,0-0.3,0-0.5,0c-0.1,0-0.3,0.1-0.4,0c-0.1,0-0.2-0.1-0.3-0.2c0.1-0.1,0.1-0.2,0.2-0.3
			c0.4-0.2,0.8-0.3,1.3-0.1c0.2,0.1,0.3,0.4,0.4,0.6c0.1,0.4,0,0.9,0,1.3c0,0.3-0.2,0.4-0.4,0.4c-0.2,0-0.4,0-0.6,0
			c-0.4,0-0.7-0.1-0.8-0.4c-0.1-0.4,0-0.7,0.4-0.9c0.1-0.1,0.3-0.1,0.4-0.1c0.1,0,0.3-0.1,0.4-0.1C50.9,109.6,50.9,109.5,50.9,109.5
			z M50.6,110.9c0.2-0.2,0.3-0.4,0.4-0.5c0,0-0.2-0.2-0.2-0.2c-0.2,0.1-0.3,0.2-0.4,0.3C50.4,110.6,50.5,110.7,50.6,110.9z"/>
		<path class="st0" d="M26,110.2c0-0.8,0.4-1.3,1-1.3c0.6,0,1.1,0.4,1,1.1c0,0.1-0.2,0.3-0.3,0.3c-0.3,0-0.6,0-0.8,0
			c-0.1,0-0.2,0.1-0.3,0.1c0.1,0.1,0.1,0.2,0.2,0.3c0.1,0,0.3,0,0.5,0c0.1,0,0.1-0.1,0.2-0.1c0.1,0,0.3,0.1,0.4,0.1
			c0,0.1-0.1,0.3-0.2,0.4c-0.4,0.3-0.8,0.3-1.2,0.1C26.1,111,26,110.5,26,110.2z M27.1,109.9c0.1-0.1,0.2-0.2,0.3-0.2
			c-0.1-0.1-0.2-0.2-0.3-0.2c-0.1,0-0.2,0.1-0.3,0.2C26.8,109.7,26.9,109.8,27.1,109.9z"/>
		<path class="st0" d="M44.7,110.1c0-0.9,0.7-1.4,1.5-1.1c0.2,0.1,0.4,0.3,0.5,0.5c0.3,0.6,0.1,0.8-0.5,0.8c-0.1,0-0.3,0-0.4,0
			c-0.1,0-0.2,0.1-0.3,0.2c0.1,0.1,0.2,0.3,0.3,0.3c0.1,0,0.3-0.1,0.5-0.1c0.2,0,0.4,0,0.5,0c-0.1,0.2-0.1,0.4-0.3,0.5
			c-0.4,0.2-0.8,0.2-1.2,0C44.8,110.9,44.8,110.5,44.7,110.1z M45.8,109.9c0.1-0.1,0.3-0.1,0.4-0.2c-0.1-0.1-0.2-0.2-0.3-0.2
			c-0.1,0-0.2,0.1-0.4,0.2C45.6,109.7,45.7,109.8,45.8,109.9z"/>
		<path class="st0" d="M39.5,111.3c-0.5-0.1-0.8-0.3-1-0.6c-0.2-0.5-0.1-1.2,0.2-1.5c0.3-0.3,0.9-0.3,1.2-0.2
			c0.4,0.2,0.6,0.7,0.5,1.1c0,0.1-0.2,0.2-0.3,0.2c-0.3,0-0.5,0-0.8,0c-0.1,0-0.2,0.1-0.3,0.1c0.1,0.1,0.2,0.3,0.3,0.3
			c0.2,0,0.3-0.1,0.5-0.1c0.2,0,0.4,0,0.5,0c-0.1,0.1-0.1,0.3-0.3,0.4C40,111.2,39.7,111.2,39.5,111.3z M39.1,109.6c0,0,0,0.1,0,0.1
			c0.2,0,0.3,0.1,0.5,0c0.1,0,0.1-0.1,0.2-0.2c-0.1-0.1-0.3-0.1-0.4-0.1C39.3,109.5,39.2,109.6,39.1,109.6z"/>
		<path class="st0" d="M34.6,110c0-0.8,0.4-1.2,1.1-1.2c0.7,0,1.1,0.4,1.1,1.2c0,0.8-0.4,1.2-1.1,1.2
			C34.9,111.2,34.6,110.8,34.6,110z M36.1,110c-0.1-0.2-0.1-0.4-0.2-0.5c-0.1-0.1-0.5,0-0.5,0c0,0.3,0,0.6,0,1c0,0,0.4,0.1,0.5,0
			C36,110.5,36,110.2,36.1,110z"/>
		<path class="st0" d="M29.6,110.2c0-0.9,0.5-1.4,1.2-1.3c0.2,0,0.6,0.2,0.7,0.4c0.1,0.2,0.1,0.6,0.1,0.8c0,0.1-0.4,0.1-0.6,0.1
			c-0.1,0-0.3,0-0.4,0c-0.1,0-0.2,0.1-0.3,0.1c0.1,0.1,0.1,0.2,0.2,0.3c0.1,0,0.3,0,0.4,0c0.1,0,0.1-0.1,0.2-0.1
			c0.2,0,0.3,0.1,0.4,0.1c-0.1,0.1-0.1,0.3-0.2,0.4c-0.4,0.3-0.8,0.3-1.3,0.1C29.7,110.9,29.6,110.5,29.6,110.2z M30.6,109.9
			c0.1-0.1,0.3-0.1,0.4-0.2c-0.1-0.1-0.2-0.2-0.3-0.2c-0.1,0-0.2,0.1-0.4,0.2C30.4,109.7,30.5,109.8,30.6,109.9z"/>
		<path class="st0" d="M22.8,110.1c0,0.2,0,0.5,0,0.7c0,0.4-0.1,0.5-0.5,0.4c-0.2,0-0.4,0-0.6,0c-0.6,0.1-0.9-0.1-0.9-0.7
			c0-0.4,0-0.8,0-1.2c0-0.2,0.1-0.4,0.3-0.4c0.2,0,0.3,0.1,0.3,0.3c0,0.3,0,0.6,0,0.9c0,0.2,0,0.5,0.4,0.5c0.3,0,0.4-0.2,0.4-0.5
			c0-0.3,0-0.6,0-0.9c0-0.2,0.1-0.3,0.3-0.3c0.2,0,0.3,0.1,0.3,0.3C22.8,109.5,22.8,109.8,22.8,110.1L22.8,110.1z"/>
		<path class="st0" d="M32.1,110.1c0-0.9,0.7-1.4,1.5-1.1c0.2,0.1,0.3,0.2,0.5,0.4c0.1,0.1,0,0.3,0,0.4c-0.2,0-0.4,0.1-0.5,0
			c-0.2-0.2-0.3-0.3-0.5-0.2c-0.1,0.1-0.2,0.3-0.2,0.5c0,0.2,0.1,0.5,0.2,0.6c0,0.1,0.3,0,0.4,0c0.1,0,0.1-0.2,0.2-0.2
			c0.2,0,0.3,0,0.5,0c0,0.1,0,0.3-0.1,0.4c-0.2,0.4-0.7,0.5-1.2,0.4C32.3,111,32.1,110.7,32.1,110.1z"/>
		<path class="st0" d="M37.2,109.5c0-0.4,0-0.9,0-1.3c0-0.2,0.1-0.4,0.3-0.4c0.3,0,0.3,0.1,0.3,0.4c0,0.9,0,1.8,0,2.7
			c0,0.2-0.1,0.4-0.3,0.4c-0.3,0-0.3-0.1-0.3-0.4C37.2,110.4,37.2,110,37.2,109.5z"/>
		<path class="st0" d="M49.1,109.5c0,0.4,0,0.9,0,1.3c0,0.2-0.1,0.4-0.3,0.4c-0.3,0-0.3-0.1-0.3-0.4c0-0.9,0-1.8,0-2.6
			c0-0.2,0.1-0.4,0.3-0.4c0.3,0,0.3,0.1,0.3,0.4C49.1,108.7,49.1,109.1,49.1,109.5z"/>
		<path class="st0" d="M98.5,124c0.2,0,0.5,0,0.7,0c0.5,0,0.6,0.1,0.5,0.6c0,0.1-0.2,0.3-0.3,0.3c-0.6,0-1.2,0-1.9,0
			c-0.4,0-0.3-0.3-0.3-0.5c0-0.2,0-0.4,0.3-0.4C97.9,124,98.2,124,98.5,124C98.5,124,98.5,124,98.5,124z"/>
		<path class="st0" d="M87,124.9c-0.3,0-0.6,0-0.9,0c-0.3,0-0.3-0.2-0.3-0.4c0-0.2,0-0.5,0.3-0.5c0.6,0,1.2,0,1.9,0
			c0.4,0,0.3,0.3,0.3,0.5c0,0.2,0,0.4-0.3,0.4C87.7,124.9,87.3,124.9,87,124.9L87,124.9z"/>
		<path class="st0" d="M27.1,85.5c-0.3,0.6-0.5,1.2-0.9,1.8c-0.1,0.1-0.3,0.1-0.5,0.1c0-0.1,0-0.3,0-0.4c0.1-0.4,0.3-0.8,0.5-1.2
			C26.5,85.4,26.5,85.4,27.1,85.5z"/>
		<path class="st0" d="M90.6,85.5c-0.2,0.4-0.3,0.8-0.5,1.1c-0.1,0.3-0.2,0.5-0.4,0.7c-0.1,0.1-0.3,0.1-0.5,0.2c0-0.1-0.1-0.3,0-0.4
			c0.2-0.5,0.4-0.9,0.5-1.4c0.1-0.3,0.4-0.3,0.6-0.3C90.5,85.5,90.6,85.5,90.6,85.5z"/>
		<path class="st0" d="M32.8,84.1c-0.1,0-0.2,0.1-0.3,0.1c-0.4,0.2-0.9,0.5-1.3,0.7c-0.2,0.1-0.3,0.1-0.4-0.1
			c-0.1-0.2,0-0.3,0.2-0.4c0.4-0.2,0.8-0.5,1.3-0.7c0.3-0.1,0.5,0,0.5,0.3C32.7,84,32.7,84.1,32.8,84.1z"/>
		<path class="st0" d="M30.3,108.6c0.3-0.6,0.5-0.6,1.1-0.5C31.1,108.6,30.9,108.7,30.3,108.6z"/>
	</g>
</g>
</svg>
