<svg id="Calque_1" data-name="Calque 1" xmlns="http://www.w3.org/2000/svg" viewBox="0 0 45 45">
    <defs>
        <style>.cls-1{fill:#ff7212;}</style>
    </defs>
    <title>logo</title>
    <path class="cls-1"
          d="M8.38,18H8.27a.5.5,0,0,1-.36-.31L6.14,13.18a.5.5,0,0,1,.22-.62l15.86-9a.5.5,0,0,1,.59.8L8.72,17.87A.5.5,0,0,1,8.38,18ZM7.23,13.22l1.34,3.41L19.23,6.4Z"/>
    <path class="cls-1"
          d="M17.88,38.14l-.15,0L3.4,33.69a.5.5,0,0,1-.33-.62L7.9,17.36A.5.5,0,0,1,8.34,17a.49.49,0,0,1,.49.29l9.5,20.13a.5.5,0,0,1-.45.71ZM4.17,32.88l12.77,3.95L8.48,18.89Z"/>
    <path class="cls-1"
          d="M3.55,33.71H3.43a.5.5,0,0,1-.38-.56L6.11,12.93a.5.5,0,0,1,.44-.42.51.51,0,0,1,.52.31l1.77,4.51a.5.5,0,0,1,0,.33L4,33.36A.5.5,0,0,1,3.55,33.71ZM6.82,14.92,5,26.63l2.8-9.1Z"/>
    <path class="cls-1"
          d="M30.28,19h0L8.34,17.78c-.2,0-.37,0-.44-.21A.41.41,0,0,1,8,17.09L22.12,3.59a.5.5,0,0,1,.43-.12.51.51,0,0,1,.36.27l7.81,15c.08.16.07.13,0,.28S30.45,19,30.28,19ZM9.54,17.08,29.42,18.4,22.33,4.8Z"/>
    <path class="cls-1"
          d="M17.88,38.14h0a.5.5,0,0,1-.42-.29L7.93,17.72A.5.5,0,0,1,8.41,17l21.9,1.45a.5.5,0,0,1,.38.78L18.3,37.92A.5.5,0,0,1,17.88,38.14ZM9.19,18.06,18,36.62,29.39,19.4Z"/>
    <path class="cls-1"
          d="M32.95,12.7a.5.5,0,0,1-.44-.27L26.73,1.35A.5.5,0,0,1,27.44.7L40.48,9a.5.5,0,0,1-.09.89l-7.26,2.74A.49.49,0,0,1,32.95,12.7ZM28.48,2.55l4.7,9L39.1,9.34Z"/>
    <path class="cls-1"
          d="M21.1,44.5a.5.5,0,0,1-.26-.07L3.28,33.64a.5.5,0,0,1,.41-.9L18,37.16a.5.5,0,0,1,.3.25l3.22,6.36a.5.5,0,0,1-.45.73ZM7.18,34.86l12.68,7.79-2.33-4.59Z"/>
    <path class="cls-1"
          d="M17.88,38.14a.5.5,0,0,1-.42-.78l12.4-18.68a.5.5,0,0,1,.87.06l8.05,16.59a.5.5,0,0,1-.4.72L17.93,38.14ZM30.21,20,18.88,37l18.69-1.91Z"/>
    <path class="cls-1"
          d="M38.33,36a.5.5,0,0,1-.45-.28L29.83,19.18a.5.5,0,0,1,.27-.69l9.82-3.7a.5.5,0,0,1,.67.51L38.83,35.59a.5.5,0,0,1-.41.45ZM31,19.23,38,33.7,39.53,16Z"/>
    <path class="cls-1"
          d="M21.1,44.5a.5.5,0,0,1-.45-.27l-3.22-6.36a.5.5,0,0,1,.4-.72L38.28,35a.51.51,0,0,1,.53.36.5.5,0,0,1-.26.59L21.32,44.45A.5.5,0,0,1,21.1,44.5Zm-2.45-6.44,2.67,5.27,14.28-7Z"/>
</svg>