<svg id="Calque_1" data-name="Calque 1" xmlns="http://www.w3.org/2000/svg" viewBox="0 0 45 63.32">
    <defs>
        <style>.cls-1{fill:#ff7212;}</style>
    </defs>
    <title>logo2</title>
    <path class="cls-1"
          d="M8.38,18H8.27a.5.5,0,0,1-.36-.31L6.14,13.18a.5.5,0,0,1,.22-.62l15.86-9a.5.5,0,0,1,.59.8L8.72,17.87A.5.5,0,0,1,8.38,18ZM7.23,13.22l1.34,3.41L19.23,6.4Z"/>
    <path class="cls-1"
          d="M17.88,38.14l-.15,0L3.4,33.69a.5.5,0,0,1-.33-.62L7.9,17.36A.5.5,0,0,1,8.34,17a.49.49,0,0,1,.49.29l9.5,20.13a.5.5,0,0,1-.45.71ZM4.17,32.88l12.77,3.95L8.48,18.89Z"/>
    <path class="cls-1"
          d="M3.55,33.71H3.43a.5.5,0,0,1-.38-.56L6.11,12.93a.5.5,0,0,1,.44-.42.51.51,0,0,1,.52.31l1.77,4.51a.5.5,0,0,1,0,.33L4,33.36A.5.5,0,0,1,3.55,33.71ZM6.82,14.92,5,26.63l2.8-9.1Z"/>
    <path class="cls-1"
          d="M30.28,19h0L8.34,17.78c-.2,0-.37,0-.44-.21A.41.41,0,0,1,8,17.09L22.12,3.59a.5.5,0,0,1,.43-.12.51.51,0,0,1,.36.27l7.81,15c.08.16.07.13,0,.28S30.45,19,30.28,19ZM9.54,17.08,29.42,18.4,22.33,4.8Z"/>
    <path class="cls-1"
          d="M17.88,38.14h0a.5.5,0,0,1-.42-.29L7.93,17.72A.5.5,0,0,1,8.41,17l21.9,1.45a.5.5,0,0,1,.38.78L18.3,37.92A.5.5,0,0,1,17.88,38.14ZM9.19,18.06,18,36.62,29.39,19.4Z"/>
    <path class="cls-1"
          d="M32.95,12.7a.5.5,0,0,1-.44-.27L26.73,1.35A.5.5,0,0,1,27.44.7L40.48,9a.5.5,0,0,1-.09.89l-7.26,2.74A.49.49,0,0,1,32.95,12.7ZM28.48,2.55l4.7,9L39.1,9.34Z"/>
    <path class="cls-1"
          d="M21.1,44.5a.5.5,0,0,1-.26-.07L3.28,33.64a.5.5,0,0,1,.41-.9L18,37.16a.5.5,0,0,1,.3.25l3.22,6.36a.5.5,0,0,1-.45.73ZM7.18,34.86l12.68,7.79-2.33-4.59Z"/>
    <path class="cls-1"
          d="M17.88,38.14a.5.5,0,0,1-.42-.78l12.4-18.68a.5.5,0,0,1,.87.06l8.05,16.59a.5.5,0,0,1-.4.72L17.93,38.14ZM30.21,20,18.88,37l18.69-1.91Z"/>
    <path class="cls-1"
          d="M38.33,36a.5.5,0,0,1-.45-.28L29.83,19.18a.5.5,0,0,1,.27-.69l9.82-3.7a.5.5,0,0,1,.67.51L38.83,35.59a.5.5,0,0,1-.41.45ZM31,19.23,38,33.7,39.53,16Z"/>
    <path class="cls-1"
          d="M21.1,44.5a.5.5,0,0,1-.45-.27l-3.22-6.36a.5.5,0,0,1,.4-.72L38.28,35a.51.51,0,0,1,.53.36.5.5,0,0,1-.26.59L21.32,44.45A.5.5,0,0,1,21.1,44.5Zm-2.45-6.44,2.67,5.27,14.28-7Z"/>
    <path class="cls-1"
          d="M3,55.66H1.51v2.59H.67v-6.4H2.78a2.51,2.51,0,0,1,1.66.49A1.77,1.77,0,0,1,5,53.77a1.73,1.73,0,0,1-.32,1,1.93,1.93,0,0,1-.9.66l1.5,2.72v.05H4.41ZM1.51,55h1.3a1.46,1.46,0,0,0,1-.33,1.1,1.1,0,0,0,.37-.87,1.16,1.16,0,0,0-.35-.91,1.5,1.5,0,0,0-1-.32H1.51Z"/>
    <path class="cls-1" d="M14.33,55.29H11.56v2.27h3.22v.69H10.71v-6.4h4v.69H11.56V54.6h2.77Z"/>
    <path class="cls-1"
          d="M22.21,55.39a4,4,0,0,1-1.58-.77,1.47,1.47,0,0,1-.49-1.12,1.55,1.55,0,0,1,.6-1.25,2.4,2.4,0,0,1,1.57-.49,2.62,2.62,0,0,1,1.18.25,1.93,1.93,0,0,1,.8.7,1.79,1.79,0,0,1,.28,1h-.85a1.17,1.17,0,0,0-.37-.92,1.5,1.5,0,0,0-1-.33,1.53,1.53,0,0,0-1,.28.92.92,0,0,0-.35.76.82.82,0,0,0,.33.66,3.24,3.24,0,0,0,1.13.5,5.22,5.22,0,0,1,1.25.5,1.88,1.88,0,0,1,.67.63,1.61,1.61,0,0,1,.22.85A1.5,1.5,0,0,1,24,57.87a2.59,2.59,0,0,1-1.62.47,3,3,0,0,1-1.23-.25,2.07,2.07,0,0,1-.88-.69,1.69,1.69,0,0,1-.31-1h.85a1.1,1.1,0,0,0,.43.92,1.8,1.8,0,0,0,1.15.34,1.66,1.66,0,0,0,1-.27.89.89,0,0,0,.36-.74.87.87,0,0,0-.33-.73A3.81,3.81,0,0,0,22.21,55.39Z"/>
    <path class="cls-1" d="M33.78,55.29H31v2.27h3.22v.69H30.17v-6.4h4v.69H31V54.6h2.77Z"/>
    <path class="cls-1" d="M44.29,52.54H42.23v5.71h-.84V52.54H39.34v-.69h4.95Z"/>
</svg>